# This file uses centimeters as units for non-parametric coordinates.

mtllib IzqTras.mtl
g default
v 0.162946 -0.031205 0.043146
v -0.218085 0.015610 0.037725
v -0.221524 -0.073026 -0.069150
v 0.272300 -0.057233 -0.062124
v 0.149205 -0.480203 0.043077
v -0.083404 -0.499038 0.039766
v 0.150658 -0.480203 -0.058816
v -0.081951 -0.499038 -0.062122
v 0.190126 -0.782805 0.029414
v -0.055428 -0.802684 0.025920
v 0.191393 -0.782805 -0.059490
v -0.054161 -0.802684 -0.062983
v -0.009623 -1.266799 0.014841
v -0.132926 -1.246959 0.013088
v -0.008691 -1.266799 -0.050600
v -0.131998 -1.246959 -0.052355
v -0.089086 -1.545517 0.013700
v -0.212359 -1.525680 0.011953
v -0.088156 -1.545517 -0.051727
v -0.211430 -1.525680 -0.053480
v -0.107782 -1.681420 0.021168
v -0.278451 -1.642447 0.018739
v -0.106631 -1.681420 -0.059715
v -0.277300 -1.642447 -0.062144
v -0.217502 -1.837648 0.011427
v -0.350116 -1.780255 0.009540
v -0.216584 -1.837648 -0.053104
v -0.349198 -1.780255 -0.054991
v -0.200382 -1.930848 0.011671
v -0.444980 -1.930848 0.008189
v -0.199464 -1.930848 -0.052860
v -0.444062 -1.930848 -0.056343
v -0.007240 -0.018643 0.077890
v 0.025669 -0.065130 -0.085177
v 0.032336 -0.489617 0.081395
v 0.034595 -0.489617 -0.077449
v 0.066777 -0.792744 0.068080
v 0.068936 -0.792744 -0.083811
v -0.071585 -1.256879 0.035595
v -0.070181 -1.256879 -0.063128
v -0.151031 -1.535600 0.034459
v -0.149626 -1.535600 -0.064255
v -0.193482 -1.661933 0.045511
v -0.191748 -1.661933 -0.076508
v -0.284119 -1.808951 0.031886
v -0.282736 -1.808951 -0.065467
v -0.322991 -1.930848 0.031332
v -0.321607 -1.930848 -0.066020
vt 0.409063 0.195061
vt 0.421102 0.051961
vt 0.456442 0.054822
vt 0.460618 0.191244
vt 1.282883 0.628674
vt 1.272478 0.536573
vt 1.309786 0.533553
vt 1.318224 0.625812
vt 1.083332 0.191244
vt 1.083294 0.054822
vt 1.114254 0.054822
vt 1.115785 0.183336
vt 1.285630 0.757649
vt 1.360657 0.755250
vt 0.917324 0.730649
vt 0.918855 0.601211
vt 0.949816 0.601211
vt 0.949778 0.757580
vt 1.087620 -0.037120
vt 1.091185 -0.184175
vt 1.111071 -0.184175
vt 1.114636 -0.037120
vt 0.918474 0.508952
vt 0.945489 0.508952
vt 0.431508 -0.040140
vt 0.468816 -0.037120
vt 0.922039 0.373965
vt 0.922040 0.289279
vt 0.941923 0.289279
vt 0.941924 0.373965
vt 0.389333 -0.181161
vt 0.408067 -0.184175
vt 1.314653 0.395552
vt 1.333387 0.398566
vt 1.338795 0.310866
vt 1.351644 0.272481
vt 1.377574 0.278402
vt 1.357524 0.313880
vt 0.365191 -0.265847
vt 0.383919 -0.268860
vt 1.091186 -0.268860
vt 1.111070 -0.268860
vt 0.919693 0.253801
vt 0.922177 0.211930
vt 0.941786 0.211930
vt 0.944270 0.253801
vt 1.088839 -0.310153
vt 1.113417 -0.310153
vt 0.352342 -0.304232
vt 0.378272 -0.310153
vt -0.219205 1.085543
vt -0.219205 1.056716
vt -0.238813 1.056716
vt -0.238813 1.085543
vt 0.324749 -0.348901
vt 0.344897 -0.357620
vt 1.379237 0.227812
vt 1.399385 0.236531
vt 1.091323 -0.357620
vt 1.110932 -0.357620
vt -0.215735 1.093879
vt -0.245316 1.093879
vt 0.312937 -0.385938
vt 0.350100 -0.385938
vt 1.391049 0.190775
vt 1.428212 0.190775
vt 1.091323 -0.385938
vt 1.110932 -0.385938
vt 1.359088 0.219093
vt 1.353885 0.190775
vt 0.304600 -0.340182
vt 0.275773 -0.385938
vt -0.219205 1.131043
vt -0.238813 1.131043
vt 1.325713 0.266560
vt 0.326411 -0.298311
vt 0.346461 -0.262833
vt 1.295918 0.392538
vt 1.320066 0.307853
vt 0.370599 -0.178147
vt 1.235170 0.539593
vt 0.394199 -0.043160
vt 0.385762 0.049099
vt 1.210602 0.760049
vt 1.247543 0.631535
vt 0.344835 0.205468
vn 0.246766 0.010543 0.969018
vn 0.246766 0.010543 0.969018
vn 0.246766 0.010543 0.969018
vn 0.246766 0.010543 0.969018
vn -0.148904 -0.003473 -0.988846
vn -0.148904 -0.003473 -0.988846
vn -0.148904 -0.003473 -0.988846
vn -0.148904 -0.003473 -0.988846
vn 0.866940 -0.132822 0.480388
vn 0.866940 -0.132822 0.480388
vn 0.866940 -0.132822 0.480388
vn 0.866940 -0.132822 0.480388
vn -0.084333 -0.032002 -0.995924
vn -0.084333 -0.032002 -0.995924
vn -0.084333 -0.032002 -0.995924
vn -0.084333 -0.032002 -0.995924
vn -0.952644 -0.276537 0.126480
vn -0.952644 -0.276537 0.126480
vn -0.952644 -0.276537 0.126480
vn -0.952644 -0.276537 0.126480
vn 0.924150 -0.381804 0.013147
vn 0.924150 -0.381804 0.013147
vn 0.924150 -0.381804 0.013147
vn 0.924150 -0.381804 0.013147
vn 0.990964 0.133384 0.014098
vn 0.990964 0.133384 0.014098
vn 0.990964 0.133384 0.014098
vn 0.990964 0.133384 0.014098
vn -0.995744 -0.091066 -0.014167
vn -0.995744 -0.091066 -0.014167
vn -0.995744 -0.091066 -0.014167
vn -0.995744 -0.091066 -0.014167
vn 0.305483 -0.004394 0.952187
vn 0.305483 -0.004394 0.952187
vn 0.305483 -0.004394 0.952187
vn 0.305483 -0.004394 0.952187
vn -0.961603 0.274105 -0.013680
vn -0.961603 0.274105 -0.013680
vn -0.961603 0.274105 -0.013680
vn -0.961603 0.274105 -0.013680
vn -0.984959 0.172221 -0.014013
vn -0.984959 0.172221 -0.014013
vn -0.984959 0.172221 -0.014013
vn -0.984959 0.172221 -0.014013
vn 0.301681 -0.154279 0.940844
vn 0.301681 -0.154279 0.940844
vn 0.301681 -0.154279 0.940844
vn 0.301681 -0.154279 0.940844
vn -0.168457 0.006258 -0.985689
vn -0.168457 0.006258 -0.985689
vn -0.168457 0.006258 -0.985689
vn -0.168457 0.006258 -0.985689
vn -0.138059 0.145619 -0.979661
vn -0.138059 0.145619 -0.979661
vn -0.138059 0.145619 -0.979661
vn -0.138059 0.145619 -0.979661
vn 0.303338 -0.090340 0.948591
vn 0.303338 -0.090340 0.948591
vn 0.303338 -0.090340 0.948591
vn 0.303338 -0.090340 0.948591
vn -0.163608 0.050612 -0.985226
vn -0.163608 0.050612 -0.985226
vn -0.163608 0.050612 -0.985226
vn -0.163608 0.050612 -0.985226
vn 0.961569 -0.274221 0.013680
vn 0.961569 -0.274221 0.013680
vn 0.961569 -0.274221 0.013680
vn 0.961569 -0.274221 0.013680
vn -0.886796 0.461989 -0.012617
vn -0.886796 0.461989 -0.012617
vn -0.886796 0.461989 -0.012617
vn -0.886796 0.461989 -0.012617
vn 0.990677 -0.135498 0.014095
vn 0.990677 -0.135498 0.014095
vn 0.990677 -0.135498 0.014095
vn 0.990677 -0.135498 0.014095
vn -0.870498 0.492016 -0.012385
vn -0.870498 0.492016 -0.012385
vn -0.870498 0.492016 -0.012385
vn -0.870498 0.492016 -0.012385
vn 0.292040 -0.000586 0.956406
vn 0.292040 -0.000586 0.956406
vn 0.292040 -0.000586 0.956406
vn 0.292040 -0.000586 0.956406
vn -0.846001 0.533046 -0.012036
vn -0.846001 0.533046 -0.012036
vn -0.846001 0.533046 -0.012036
vn -0.846001 0.533046 -0.012036
vn 0.212745 -0.214019 0.953381
vn 0.212745 -0.214019 0.953381
vn 0.212745 -0.214019 0.953381
vn 0.212745 -0.214019 0.953381
vn -0.153578 0.024710 -0.987828
vn -0.153578 0.024710 -0.987828
vn -0.153578 0.024710 -0.987828
vn -0.153578 0.024710 -0.987828
vn 0.817946 -0.575177 0.011637
vn 0.817946 -0.575177 0.011637
vn 0.817946 -0.575177 0.011637
vn 0.817946 -0.575177 0.011637
vn -0.000002 -1.000000 -0.000000
vn -0.000002 -1.000000 -0.000000
vn -0.000002 -1.000000 -0.000000
vn -0.000002 -1.000000 -0.000000
vn 0.204166 -0.022050 0.978688
vn 0.204166 -0.022050 0.978688
vn 0.204166 -0.022050 0.978688
vn 0.204166 -0.022050 0.978688
vn -0.097677 0.054878 -0.993704
vn -0.097677 0.054878 -0.993704
vn -0.097677 0.054878 -0.993704
vn -0.097677 0.054878 -0.993704
vn 0.983435 0.180722 0.013991
vn 0.983435 0.180722 0.013991
vn 0.983435 0.180722 0.013991
vn 0.983435 0.180722 0.013991
vn 0.132525 -0.011973 -0.991107
vn 0.132525 -0.011973 -0.991107
vn 0.132525 -0.011973 -0.991107
vn 0.132525 -0.011973 -0.991107
vn -0.219387 0.100899 0.970406
vn -0.219387 0.100899 0.970406
vn -0.219387 0.100899 0.970406
vn -0.219387 0.100899 0.970406
vn 0.000002 -1.000000 0.000000
vn 0.000002 -1.000000 0.000000
vn 0.000002 -1.000000 0.000000
vn 0.000002 -1.000000 0.000000
vn 0.140761 -0.150249 -0.978576
vn 0.140761 -0.150249 -0.978576
vn 0.140761 -0.150249 -0.978576
vn 0.140761 -0.150249 -0.978576
vn -0.283611 0.085062 0.955159
vn -0.283611 0.085062 0.955159
vn -0.283611 0.085062 0.955159
vn -0.283611 0.085062 0.955159
vn -0.278123 0.193213 0.940912
vn -0.278123 0.193213 0.940912
vn -0.278123 0.193213 0.940912
vn -0.278123 0.193213 0.940912
vn 0.191562 -0.050652 -0.980173
vn 0.191562 -0.050652 -0.980173
vn 0.191562 -0.050652 -0.980173
vn 0.191562 -0.050652 -0.980173
vn -0.330209 0.090293 0.939579
vn -0.330209 0.090293 0.939579
vn -0.330209 0.090293 0.939579
vn -0.330209 0.090293 0.939579
vn 0.201636 0.028980 -0.979032
vn 0.201636 0.028980 -0.979032
vn 0.201636 0.028980 -0.979032
vn 0.201636 0.028980 -0.979032
vn 0.195452 -0.100350 -0.975566
vn 0.195452 -0.100350 -0.975566
vn 0.195452 -0.100350 -0.975566
vn 0.195452 -0.100350 -0.975566
vn -0.332121 0.031888 0.942698
vn -0.332121 0.031888 0.942698
vn -0.332121 0.031888 0.942698
vn -0.332121 0.031888 0.942698
vn -0.325696 -0.075679 0.942441
vn -0.325696 -0.075679 0.942441
vn -0.325696 -0.075679 0.942441
vn -0.325696 -0.075679 0.942441
vn 0.115484 -0.028292 -0.992906
vn 0.115484 -0.028292 -0.992906
vn 0.115484 -0.028292 -0.992906
vn 0.115484 -0.028292 -0.992906
vn 0.174551 0.033072 -0.984093
vn 0.174551 0.033072 -0.984093
vn 0.174551 0.033072 -0.984093
vn 0.174551 0.033072 -0.984093
vn -0.245504 -0.037959 0.968652
vn -0.245504 -0.037959 0.968652
vn -0.245504 -0.037959 0.968652
vn -0.245504 -0.037959 0.968652
s off
g polySurface21 polySurface18
usemtl Jirafa1:lambert5SG
f 33/1/1 35/2/2 5/3/3 1/4/4
f 36/5/5 38/6/6 12/7/7 8/8/8
f 1/9/9 5/10/10 7/11/11 4/12/12
f 34/13/13 36/5/14 8/8/15 3/14/16
f 3/15/17 8/16/18 6/17/19 2/18/20
f 9/19/21 13/20/22 15/21/23 11/22/24
f 5/10/25 9/19/26 11/22/27 7/11/28
f 8/16/29 12/23/30 10/24/31 6/17/32
f 35/2/33 37/25/34 9/26/35 5/3/36
f 16/27/37 20/28/38 18/29/39 14/30/40
f 12/23/41 16/27/42 14/30/43 10/24/44
f 37/25/45 39/31/46 13/32/47 9/26/48
f 38/6/49 40/33/50 16/34/51 12/7/52
f 42/35/53 44/36/54 24/37/55 20/38/56
f 39/31/57 41/39/58 17/40/59 13/32/60
f 40/33/61 42/35/62 20/38/63 16/34/64
f 13/20/65 17/41/66 19/42/67 15/21/68
f 24/43/69 28/44/70 26/45/71 22/46/72
f 17/41/73 21/47/74 23/48/75 19/42/76
f 20/28/77 24/43/78 22/46/79 18/29/80
f 41/39/81 43/49/82 21/50/83 17/40/84
f 28/51/85 32/52/86 30/53/87 26/54/88
f 43/49/89 45/55/90 25/56/91 21/50/92
f 44/36/93 46/57/94 28/58/95 24/37/96
f 21/47/97 25/59/98 27/60/99 23/48/100
f 48/61/101 47/62/102 30/53/103 32/52/104
f 45/55/105 47/63/106 29/64/107 25/56/108
f 46/57/109 48/65/110 32/66/111 28/58/112
f 25/59/113 29/67/114 31/68/115 27/60/116
f 27/69/117 31/70/118 48/65/119 46/57/120
f 26/71/121 30/72/122 47/63/123 45/55/124
f 31/73/125 29/74/126 47/62/127 48/61/128
f 23/75/129 27/69/130 46/57/131 44/36/132
f 22/76/133 26/71/134 45/55/135 43/49/136
f 18/77/137 22/76/138 43/49/139 41/39/140
f 15/78/141 19/79/142 42/35/143 40/33/144
f 14/80/145 18/77/146 41/39/147 39/31/148
f 19/79/149 23/75/150 44/36/151 42/35/152
f 11/81/153 15/78/154 40/33/155 38/6/156
f 10/82/157 14/80/158 39/31/159 37/25/160
f 6/83/161 10/82/162 37/25/163 35/2/164
f 4/84/165 7/85/166 36/5/167 34/13/168
f 7/85/169 11/81/170 38/6/171 36/5/172
f 2/86/173 6/83/174 35/2/175 33/1/176
