# This file uses centimeters as units for non-parametric coordinates.

mtllib DerFrontDos.mtl
g default
v 0.199477 -0.068201 0.001817
v -0.205908 0.083951 -0.003948
v -0.209282 0.023839 0.102826
v 0.212830 -0.164261 0.108829
v 0.246772 -0.523861 0.002494
v 0.050593 -0.520838 -0.000301
v 0.049077 -0.520838 0.106502
v 0.245250 -0.523861 0.109292
v 0.276767 -0.836120 0.004483
v 0.086345 -0.833183 0.001775
v 0.084873 -0.833183 0.105444
v 0.275295 -0.836120 0.108152
v 0.296273 -1.270652 0.020788
v 0.177099 -1.271719 0.019089
v 0.176074 -1.271719 0.090718
v 0.295251 -1.270652 0.092414
v 0.338837 -1.655312 0.021388
v 0.191773 -1.640887 0.019297
v 0.190748 -1.640887 0.090927
v 0.337818 -1.655312 0.093023
v 0.298787 -1.830150 0.020819
v 0.142420 -1.800230 0.018596
v 0.141395 -1.800230 0.090226
v 0.297762 -1.830150 0.092449
v 0.303167 -1.919400 0.020880
v 0.019762 -1.919400 0.016848
v 0.018746 -1.919400 0.088480
v 0.302150 -1.919400 0.092512
v -0.001365 0.019346 -0.131366
v 0.001385 -0.070211 0.132875
v 0.149332 -0.522349 -0.044233
v 0.146783 -0.522349 0.134946
v 0.182184 -0.834654 -0.041135
v 0.179707 -0.834654 0.132787
v 0.237159 -1.271184 -0.013473
v 0.235451 -1.271184 0.106702
v 0.265808 -1.648100 -0.014845
v 0.263956 -1.648100 0.115288
v 0.221076 -1.815190 -0.013704
v 0.219368 -1.815190 0.106472
v 0.161937 -1.919400 -0.014547
v 0.160229 -1.919400 0.105628
v 0.212869 -0.163634 0.107714
v 0.001424 -0.069584 0.131760
v 0.146822 -0.521723 0.133830
v 0.245289 -0.523234 0.108176
v 0.179746 -0.834027 0.131671
v 0.275334 -0.835493 0.107036
v 0.235490 -1.270557 0.105587
v 0.295290 -1.270025 0.091299
v 0.263995 -1.647474 0.114172
v 0.337857 -1.654685 0.091907
v 0.219407 -1.814563 0.105356
v 0.297801 -1.829523 0.091333
v 0.160268 -1.918773 0.104513
v 0.302189 -1.918773 0.091396
vt 0.067168 0.203125
vt 0.128759 0.176525
vt 0.143130 0.038079
vt 0.113325 0.038538
vt 0.788394 0.038538
vt 0.758589 0.038997
vt 0.769457 -0.055905
vt 0.798388 -0.056352
vt 1.199166 0.753238
vt 1.166713 0.724051
vt 1.166713 0.614792
vt 1.199166 0.614792
vt 0.592659 0.168282
vt 0.560206 0.186546
vt 0.560206 0.002789
vt 0.592659 0.002789
vt 0.744214 0.175914
vt 0.680080 0.204490
vt 1.198690 0.519916
vt 1.167188 0.519916
vt 1.172056 0.387889
vt 1.193823 0.387889
vt 0.560682 -0.092113
vt 0.592184 -0.092113
vt 0.152251 -0.056797
vt 0.123320 -0.056352
vt 1.172056 0.271015
vt 1.193823 0.271015
vt 0.158249 -0.188824
vt 0.140141 -0.188986
vt 0.797103 -0.189148
vt 0.815210 -0.188986
vt 0.565549 -0.225357
vt 0.587316 -0.225357
vt 0.823907 -0.303507
vt 0.801562 -0.301315
vt 0.786566 -0.349730
vt 0.810323 -0.354275
vt 0.171182 -0.305698
vt 0.148838 -0.303507
vt 0.565549 -0.337524
vt 0.587316 -0.337524
vt 1.193823 0.217893
vt 1.172056 0.217893
vt 1.172056 0.190775
vt 1.193823 0.190775
vt 0.565549 -0.385938
vt 0.587316 -0.385938
vt 0.159012 -0.358820
vt 0.135255 -0.354275
vt 0.139163 1.099774
vt 0.143761 1.056716
vt 0.165528 1.056716
vt 0.175680 1.099774
vt 0.160344 -0.385938
vt 0.117285 -0.385938
vt 0.749295 -0.385938
vt 0.792353 -0.385938
vt 0.143761 1.093988
vt 0.165528 1.093988
vt 0.111498 -0.349730
vt 0.074226 -0.385938
vt 0.143761 1.142833
vt 0.165528 1.142833
vt 0.126493 -0.301315
vt 0.122034 -0.189148
vt 0.094389 -0.055905
vt 0.083521 0.038997
vt 0.005577 0.222754
vt 0.834080 -0.358820
vt 0.810323 -0.354275
vt 0.792353 -0.385938
vt 0.835412 -0.385938
vt 0.833317 -0.188824
vt 0.815210 -0.188986
vt 0.823907 -0.303507
vt 0.846251 -0.305698
vt 0.827320 -0.056797
vt 0.798388 -0.056352
vt 0.808347 0.147338
vt 0.744214 0.175914
vt 0.788394 0.038538
vt 0.818199 0.038079
vn 0.522538 0.028708 -0.852132
vn 0.522538 0.028708 -0.852132
vn 0.522538 0.028708 -0.852132
vn 0.522538 0.028708 -0.852132
vn -0.278626 -0.035596 0.959740
vn -0.278626 -0.035596 0.959740
vn -0.278626 -0.035596 0.959740
vn -0.278626 -0.035596 0.959740
vn 0.995191 0.097294 -0.011355
vn 0.995191 0.097294 -0.011355
vn 0.995191 0.097294 -0.011355
vn 0.995191 0.097294 -0.011355
vn -0.903970 -0.405759 -0.134897
vn -0.903970 -0.405759 -0.134897
vn -0.903970 -0.405759 -0.134897
vn -0.903970 -0.405759 -0.134897
vn -0.209410 -0.079203 0.974615
vn -0.209410 -0.079203 0.974615
vn -0.209410 -0.079202 0.974615
vn -0.209410 -0.079203 0.974615
vn 0.998869 0.045365 0.014213
vn 0.998869 0.045365 0.014213
vn 0.998869 0.045365 0.014213
vn 0.998869 0.045365 0.014213
vn -0.993403 -0.113801 -0.014103
vn -0.993404 -0.113801 -0.014103
vn -0.993403 -0.113801 -0.014103
vn -0.993403 -0.113801 -0.014103
vn 0.995309 0.095706 0.014158
vn 0.995309 0.095706 0.014158
vn 0.995309 0.095706 0.014158
vn 0.995309 0.095706 0.014158
vn 0.433567 0.036295 -0.900390
vn 0.433567 0.036295 -0.900390
vn 0.433567 0.036295 -0.900390
vn 0.433567 0.036295 -0.900390
vn 0.993831 0.109998 0.014162
vn 0.993831 0.109998 0.014162
vn 0.993831 0.109998 0.014162
vn 0.993831 0.109998 0.014162
vn 0.461123 -0.005359 -0.887320
vn 0.461123 -0.005359 -0.887320
vn 0.461123 -0.005359 -0.887320
vn 0.461123 -0.005359 -0.887320
vn -0.269893 -0.090030 0.958672
vn -0.269893 -0.090030 0.958672
vn -0.269893 -0.090030 0.958672
vn -0.269893 -0.090030 0.958672
vn -0.979048 -0.203153 -0.013945
vn -0.979048 -0.203153 -0.013945
vn -0.979048 -0.203153 -0.013945
vn -0.979048 -0.203153 -0.013945
vn -0.253030 0.044641 0.966428
vn -0.253030 0.044641 0.966428
vn -0.253030 0.044641 0.966428
vn -0.253030 0.044641 0.966428
vn 0.471970 0.045024 -0.880464
vn 0.471970 0.045024 -0.880464
vn 0.471970 0.045024 -0.880464
vn 0.471970 0.045024 -0.880464
vn -0.291366 -0.005587 0.956595
vn -0.291366 -0.005587 0.956595
vn -0.291366 -0.005587 0.956595
vn -0.291366 -0.005587 0.956595
vn -0.999109 -0.039720 -0.014296
vn -0.999109 -0.039720 -0.014296
vn -0.999109 -0.039720 -0.014296
vn -0.999109 -0.039720 -0.014296
vn 0.998694 0.049064 0.014232
vn 0.998694 0.049064 0.014232
vn 0.998694 0.049064 0.014232
vn 0.998694 0.049064 0.014232
vn -0.955125 0.295888 -0.013667
vn -0.955125 0.295888 -0.013667
vn -0.955125 0.295888 -0.013667
vn -0.955125 0.295888 -0.013667
vn 0.974645 -0.223325 0.013905
vn 0.974645 -0.223325 0.013905
vn 0.974645 -0.223325 0.013905
vn 0.974645 -0.223325 0.013905
vn 0.410156 -0.103216 -0.906156
vn 0.410156 -0.103216 -0.906156
vn 0.410156 -0.103216 -0.906156
vn 0.410156 -0.103216 -0.906156
vn 0.000000 -1.000000 0.000003
vn 0.000000 -1.000000 0.000003
vn 0.000000 -1.000000 0.000003
vn 0.000000 -1.000000 0.000003
vn 0.298344 -0.080600 -0.951049
vn 0.298344 -0.080600 -0.951049
vn 0.298344 -0.080600 -0.951049
vn 0.298344 -0.080600 -0.951049
vn -0.142634 0.104666 0.984226
vn -0.142634 0.104666 0.984226
vn -0.142634 0.104666 0.984226
vn -0.142634 0.104666 0.984226
vn -0.696743 0.717252 -0.009930
vn -0.696743 0.717252 -0.009930
vn -0.696743 0.717252 -0.009930
vn -0.696743 0.717252 -0.009930
vn -0.256590 0.219743 -0.941209
vn -0.256590 0.219743 -0.941209
vn -0.256590 0.219743 -0.941209
vn -0.256590 0.219743 -0.941209
vn 0.000000 -1.000000 0.000001
vn 0.000000 -1.000000 0.000001
vn 0.000000 -1.000000 0.000001
vn 0.000000 -1.000000 0.000001
vn -0.383235 0.109221 -0.917171
vn -0.383235 0.109221 -0.917171
vn -0.383235 0.109221 -0.917171
vn -0.383235 0.109221 -0.917171
vn -0.446222 -0.024516 -0.894586
vn -0.446222 -0.024516 -0.894586
vn -0.446222 -0.024516 -0.894586
vn -0.446222 -0.024516 -0.894586
vn -0.433261 -0.118077 -0.893500
vn -0.433261 -0.118077 -0.893500
vn -0.433261 -0.118077 -0.893500
vn -0.433261 -0.118077 -0.893500
vn -0.407670 -0.052322 -0.911629
vn -0.407670 -0.052322 -0.911629
vn -0.407670 -0.052322 -0.911629
vn -0.407670 -0.052322 -0.911629
vn -0.516972 -0.248476 -0.819146
vn -0.516972 -0.248476 -0.819146
vn -0.516972 -0.248476 -0.819146
vn -0.516972 -0.248476 -0.819146
vn 0.119641 -0.037862 0.992095
vn 0.119641 -0.037862 0.992095
vn 0.119641 -0.037862 0.992095
vn 0.119641 -0.037862 0.992095
vn 0.265305 0.036391 0.963478
vn 0.265305 0.036391 0.963477
vn 0.265305 0.036391 0.963477
vn 0.265305 0.036391 0.963478
vn 0.219883 -0.081130 0.972147
vn 0.219883 -0.081130 0.972147
vn 0.219883 -0.081130 0.972147
vn 0.219883 -0.081130 0.972147
vn 0.242757 -0.025464 0.969753
vn 0.242757 -0.025464 0.969753
vn 0.242757 -0.025464 0.969753
vn 0.242757 -0.025464 0.969753
vn 0.170346 0.040388 0.984556
vn 0.170346 0.040388 0.984556
vn 0.170346 0.040388 0.984556
vn 0.170346 0.040388 0.984556
vn 0.251100 0.020204 0.967750
vn 0.251100 0.020204 0.967750
vn 0.251100 0.020204 0.967750
vn 0.251100 0.020204 0.967750
s off
g polySurface28
usemtl Jirafa1:lambert5SG
f 29/1/1 1/2/2 5/3/3 31/4/4
f 32/5/5 7/6/6 11/7/7 34/8/8
f 1/9/9 4/10/10 8/11/11 5/12/12
f 3/13/13 2/14/14 6/15/15 7/16/16
f 30/17/17 3/18/18 7/6/19 32/5/20
f 9/19/21 12/20/22 16/21/23 13/22/24
f 7/16/25 6/15/26 10/23/27 11/24/28
f 5/12/29 8/11/30 12/20/31 9/19/32
f 31/4/33 5/3/34 9/25/35 33/26/36
f 13/22/37 16/21/38 20/27/39 17/28/40
f 33/26/41 9/25/42 13/29/43 35/30/44
f 34/8/45 11/7/46 15/31/47 36/32/48
f 11/24/49 10/23/50 14/33/51 15/34/52
f 38/35/53 19/36/54 23/37/55 40/38/56
f 35/30/57 13/29/58 17/39/59 37/40/60
f 36/32/61 15/31/62 19/36/63 38/35/64
f 15/34/65 14/33/66 18/41/67 19/42/68
f 21/43/69 24/44/70 28/45/71 25/46/72
f 19/42/73 18/41/74 22/47/75 23/48/76
f 17/28/77 20/27/78 24/44/79 21/43/80
f 37/40/81 17/39/82 21/49/83 39/50/84
f 42/51/85 27/52/86 26/53/87 41/54/88
f 39/50/89 21/49/90 25/55/91 41/56/92
f 40/38/93 23/37/94 27/57/95 42/58/96
f 23/59/97 22/60/98 26/53/99 27/52/100
f 22/61/101 39/50/102 41/56/103 26/62/104
f 28/63/105 42/51/106 41/54/107 25/64/108
f 18/65/109 37/40/110 39/50/111 22/61/112
f 14/66/113 35/30/114 37/40/115 18/65/116
f 10/67/117 33/26/118 35/30/119 14/66/120
f 6/68/121 31/4/122 33/26/123 10/67/124
f 2/69/125 29/1/126 31/4/127 6/68/128
f 54/70/129 53/71/130 55/72/131 56/73/132
f 50/74/133 49/75/134 51/76/135 52/77/136
f 52/77/137 51/76/138 53/71/139 54/70/140
f 48/78/141 47/79/142 49/75/143 50/74/144
f 43/80/145 44/81/146 45/82/147 46/83/148
f 46/83/149 45/82/150 47/79/151 48/78/152
