# This file uses centimeters as units for non-parametric coordinates.

mtllib DerTrasDos.mtl
g default
v 0.169724 -0.031157 -0.026685
v -0.211307 0.015657 -0.032106
v -0.217790 -0.072979 0.074625
v 0.276034 -0.057186 0.081651
v 0.155986 -0.480156 -0.027007
v -0.076622 -0.498990 -0.030318
v 0.154538 -0.480156 0.074880
v -0.078072 -0.498990 0.071573
v 0.196501 -0.782757 -0.012195
v -0.049052 -0.802637 -0.015688
v 0.195235 -0.782757 0.076715
v -0.050318 -0.802637 0.073221
v -0.003583 -1.266752 -0.003304
v -0.126886 -1.246911 -0.005057
v -0.004514 -1.266752 0.062137
v -0.127817 -1.246911 0.060384
v -0.083050 -1.545470 -0.004429
v -0.206321 -1.525633 -0.006185
v -0.083977 -1.545470 0.061001
v -0.207250 -1.525633 0.059248
v -0.101523 -1.681373 -0.012420
v -0.272192 -1.642399 -0.014848
v -0.102674 -1.681373 0.068463
v -0.273343 -1.642399 0.066034
v -0.211475 -1.837600 -0.005804
v -0.344089 -1.780208 -0.007690
v -0.212393 -1.837600 0.058728
v -0.345007 -1.780208 0.056841
v -0.194355 -1.930801 -0.005560
v -0.438953 -1.930801 -0.009042
v -0.195273 -1.930801 0.058972
v -0.439871 -1.930801 0.055489
v 0.000592 -0.018596 -0.066264
v 0.028850 -0.065083 0.097676
v 0.040253 -0.489569 -0.068635
v 0.037992 -0.489569 0.090206
v 0.074300 -0.792697 -0.054346
v 0.072141 -0.792697 0.097545
v -0.064930 -1.256831 -0.025812
v -0.066333 -1.256831 0.072913
v -0.144376 -1.535553 -0.026938
v -0.145780 -1.535553 0.071776
v -0.186495 -1.661886 -0.039194
v -0.188232 -1.661886 0.082828
v -0.277483 -1.808904 -0.028148
v -0.278866 -1.808904 0.069200
v -0.316355 -1.930801 -0.028702
v -0.317738 -1.930801 0.068646
vt 0.409063 0.195061
vt 0.460617 0.191244
vt 0.456442 0.054822
vt 0.421102 0.051961
vt 1.275846 0.051961
vt 1.240506 0.049099
vt 1.248943 -0.043160
vt 1.286252 -0.040140
vt 1.068524 0.191244
vt 1.036071 0.183336
vt 1.037602 0.054822
vt 1.068562 0.054822
vt 1.273100 0.180936
vt 1.198072 0.178537
vt 0.993743 0.730649
vt 0.961289 0.757580
vt 0.961251 0.601211
vt 0.992212 0.601211
vt 1.064236 -0.037120
vt 1.037220 -0.037120
vt 1.040785 -0.184175
vt 1.060671 -0.184175
vt 0.965577 0.508952
vt 0.992593 0.508952
vt 0.468816 -0.037120
vt 0.431508 -0.040140
vt 0.989028 0.373965
vt 0.969143 0.373965
vt 0.969144 0.289279
vt 0.989027 0.289279
vt 0.408067 -0.184175
vt 0.389333 -0.181161
vt 1.225343 -0.178147
vt 1.244077 -0.181161
vt 1.219935 -0.265847
vt 1.201205 -0.262833
vt 1.181155 -0.298311
vt 1.207086 -0.304232
vt 0.383919 -0.268860
vt 0.365191 -0.265847
vt 1.040786 -0.268860
vt 1.060670 -0.268860
vt 0.991374 0.253801
vt 0.966797 0.253801
vt 0.969281 0.211930
vt 0.988890 0.211930
vt 1.038439 -0.310153
vt 1.063017 -0.310153
vt 0.378272 -0.310153
vt 0.352341 -0.304232
vt -0.200829 1.085543
vt -0.181221 1.085543
vt -0.181221 1.056716
vt -0.200829 1.056716
vt 0.344897 -0.357620
vt 0.324749 -0.348901
vt 1.159344 -0.340182
vt 1.179492 -0.348901
vt 1.040924 -0.357620
vt 1.060532 -0.357620
vt -0.204300 1.093879
vt -0.174718 1.093879
vt 0.350100 -0.385938
vt 0.312937 -0.385938
vt 1.130517 -0.385938
vt 1.167681 -0.385938
vt 1.040924 -0.385938
vt 1.060532 -0.385938
vt 1.199641 -0.357620
vt 1.204844 -0.385938
vt 0.304600 -0.340182
vt 0.275773 -0.385938
vt -0.200829 1.131043
vt -0.181221 1.131043
vt 1.233016 -0.310153
vt 0.326411 -0.298311
vt 0.346461 -0.262833
vt 1.262811 -0.184175
vt 1.238663 -0.268860
vt 0.370599 -0.178147
vt 1.323560 -0.037120
vt 0.394199 -0.043160
vt 0.385762 0.049099
vt 1.348128 0.183336
vt 1.311186 0.054822
vt 0.344835 0.205468
vn 0.274234 0.010543 -0.961605
vn 0.274234 0.010543 -0.961605
vn 0.274234 0.010543 -0.961605
vn 0.274234 0.010543 -0.961605
vn -0.176974 -0.003473 0.984209
vn -0.176974 -0.003473 0.984209
vn -0.176974 -0.003473 0.984209
vn -0.176974 -0.003473 0.984209
vn 0.880255 -0.132822 -0.455532
vn 0.880255 -0.132822 -0.455532
vn 0.880255 -0.132822 -0.455532
vn 0.880255 -0.132822 -0.455532
vn -0.112631 -0.032002 0.993121
vn -0.112631 -0.032002 0.993121
vn -0.112631 -0.032002 0.993121
vn -0.112631 -0.032002 0.993121
vn -0.948660 -0.276537 -0.153529
vn -0.948660 -0.276537 -0.153529
vn -0.948660 -0.276537 -0.153529
vn -0.948660 -0.276537 -0.153529
vn 0.924150 -0.381804 0.013147
vn 0.924150 -0.381804 0.013147
vn 0.924150 -0.381804 0.013147
vn 0.924150 -0.381804 0.013147
vn 0.990964 0.133384 0.014098
vn 0.990964 0.133384 0.014098
vn 0.990964 0.133384 0.014098
vn 0.990964 0.133384 0.014098
vn -0.995744 -0.091066 -0.014167
vn -0.995744 -0.091066 -0.014167
vn -0.995744 -0.091066 -0.014167
vn -0.995744 -0.091066 -0.014167
vn 0.332447 -0.004394 -0.943112
vn 0.332447 -0.004394 -0.943112
vn 0.332447 -0.004394 -0.943112
vn 0.332447 -0.004394 -0.943112
vn -0.961603 0.274105 -0.013680
vn -0.961603 0.274105 -0.013680
vn -0.961603 0.274105 -0.013680
vn -0.961603 0.274105 -0.013680
vn -0.984959 0.172221 -0.014013
vn -0.984959 0.172221 -0.014013
vn -0.984959 0.172221 -0.014013
vn -0.984959 0.172221 -0.014013
vn 0.328324 -0.154279 -0.931881
vn 0.328324 -0.154279 -0.931881
vn 0.328324 -0.154279 -0.931881
vn 0.328324 -0.154279 -0.931881
vn -0.196429 0.006258 0.980498
vn -0.196429 0.006258 0.980498
vn -0.196429 0.006258 0.980498
vn -0.196429 0.006258 0.980498
vn -0.165873 0.145619 0.975336
vn -0.165873 0.145619 0.975336
vn -0.165873 0.145619 0.975336
vn -0.165873 0.145619 0.975336
vn 0.330201 -0.090340 -0.939578
vn 0.330201 -0.090340 -0.939578
vn 0.330201 -0.090340 -0.939578
vn 0.330201 -0.090340 -0.939578
vn -0.191569 0.050612 0.980173
vn -0.191569 0.050612 0.980173
vn -0.191569 0.050612 0.980173
vn -0.191569 0.050612 0.980173
vn 0.961569 -0.274221 0.013680
vn 0.961569 -0.274221 0.013680
vn 0.961569 -0.274221 0.013680
vn 0.961569 -0.274221 0.013680
vn -0.886796 0.461989 -0.012617
vn -0.886796 0.461989 -0.012617
vn -0.886796 0.461989 -0.012617
vn -0.886796 0.461989 -0.012617
vn 0.990677 -0.135498 0.014095
vn 0.990677 -0.135498 0.014095
vn 0.990677 -0.135498 0.014095
vn 0.990677 -0.135498 0.014095
vn -0.870498 0.492016 -0.012385
vn -0.870498 0.492016 -0.012385
vn -0.870498 0.492016 -0.012385
vn -0.870498 0.492016 -0.012385
vn 0.319129 -0.000585 -0.947711
vn 0.319129 -0.000585 -0.947711
vn 0.319129 -0.000585 -0.947711
vn 0.319129 -0.000585 -0.947711
vn -0.846001 0.533046 -0.012036
vn -0.846001 0.533046 -0.012036
vn -0.846001 0.533046 -0.012036
vn -0.846001 0.533046 -0.012036
vn 0.239781 -0.214019 -0.946943
vn 0.239781 -0.214019 -0.946943
vn 0.239781 -0.214019 -0.946943
vn 0.239781 -0.214019 -0.946943
vn -0.181617 0.024710 0.983059
vn -0.181617 0.024710 0.983059
vn -0.181617 0.024710 0.983059
vn -0.181617 0.024710 0.983059
vn 0.817946 -0.575177 0.011637
vn 0.817946 -0.575177 0.011637
vn 0.817946 -0.575177 0.011637
vn 0.817946 -0.575177 0.011637
vn -0.000002 -1.000000 -0.000000
vn -0.000002 -1.000000 -0.000000
vn -0.000002 -1.000000 -0.000000
vn -0.000002 -1.000000 -0.000000
vn 0.231925 -0.022050 -0.972484
vn 0.231925 -0.022050 -0.972484
vn 0.231925 -0.022050 -0.972484
vn 0.231925 -0.022050 -0.972484
vn -0.125907 0.054878 0.990523
vn -0.125907 0.054878 0.990523
vn -0.125907 0.054878 0.990523
vn -0.125907 0.054878 0.990523
vn 0.983435 0.180721 0.013991
vn 0.983435 0.180721 0.013991
vn 0.983435 0.180721 0.013991
vn 0.983435 0.180721 0.013991
vn 0.104276 -0.011973 0.994476
vn 0.104276 -0.011973 0.994476
vn 0.104276 -0.011973 0.994476
vn 0.104276 -0.011973 0.994476
vn -0.191692 0.100899 -0.976255
vn -0.191692 0.100899 -0.976255
vn -0.191692 0.100899 -0.976255
vn -0.191692 0.100899 -0.976255
vn 0.000002 -1.000000 0.000000
vn 0.000002 -1.000000 0.000000
vn 0.000002 -1.000000 0.000000
vn 0.000002 -1.000000 0.000000
vn 0.112866 -0.150249 0.982185
vn 0.112866 -0.150249 0.982185
vn 0.112866 -0.150249 0.982185
vn 0.112866 -0.150249 0.982185
vn -0.256324 0.085062 -0.962841
vn -0.256324 0.085062 -0.962841
vn -0.256324 0.085062 -0.962841
vn -0.256324 0.085062 -0.962841
vn -0.251244 0.193213 -0.948444
vn -0.251244 0.193213 -0.948444
vn -0.251244 0.193213 -0.948444
vn -0.251244 0.193213 -0.948444
vn 0.163601 -0.050652 0.985225
vn 0.163601 -0.050652 0.985225
vn 0.163601 -0.050652 0.985225
vn 0.163601 -0.050652 0.985225
vn -0.303346 0.090293 -0.948593
vn -0.303346 0.090293 -0.948593
vn -0.303346 0.090293 -0.948593
vn -0.303346 0.090293 -0.948593
vn 0.173703 0.028980 0.984372
vn 0.173703 0.028980 0.984372
vn 0.173703 0.028980 0.984372
vn 0.173703 0.028980 0.984372
vn 0.167620 -0.100350 0.980731
vn 0.167620 -0.100350 0.980731
vn 0.167620 -0.100350 0.980731
vn 0.167620 -0.100350 0.980731
vn -0.305168 0.031888 -0.951764
vn -0.305168 0.031888 -0.951764
vn -0.305168 0.031888 -0.951764
vn -0.305168 0.031888 -0.951764
vn -0.298753 -0.075679 -0.951325
vn -0.298753 -0.075679 -0.951325
vn -0.298753 -0.075679 -0.951325
vn -0.298753 -0.075679 -0.951325
vn 0.087191 -0.028292 0.995790
vn 0.087191 -0.028292 0.995790
vn 0.087191 -0.028292 0.995790
vn 0.087191 -0.028292 0.995790
vn 0.146485 0.033072 0.988660
vn 0.146485 0.033072 0.988660
vn 0.146485 0.033072 0.988660
vn 0.146485 0.033072 0.988660
vn -0.217848 -0.037959 -0.975244
vn -0.217848 -0.037959 -0.975244
vn -0.217848 -0.037959 -0.975244
vn -0.217848 -0.037959 -0.975244
s off
g polySurface22 polySurface18
usemtl Jirafa1:lambert5SG
f 33/1/1 1/2/2 5/3/3 35/4/4
f 36/5/5 8/6/6 12/7/7 38/8/8
f 1/9/9 4/10/10 7/11/11 5/12/12
f 34/13/13 3/14/14 8/6/15 36/5/16
f 3/15/17 2/16/18 6/17/19 8/18/20
f 9/19/21 11/20/22 15/21/23 13/22/24
f 5/12/25 7/11/26 11/20/27 9/19/28
f 8/18/29 6/17/30 10/23/31 12/24/32
f 35/4/33 5/3/34 9/25/35 37/26/36
f 16/27/37 14/28/38 18/29/39 20/30/40
f 12/24/41 10/23/42 14/28/43 16/27/44
f 37/26/45 9/25/46 13/31/47 39/32/48
f 38/8/49 12/7/50 16/33/51 40/34/52
f 42/35/53 20/36/54 24/37/55 44/38/56
f 39/32/57 13/31/58 17/39/59 41/40/60
f 40/34/61 16/33/62 20/36/63 42/35/64
f 13/22/65 15/21/66 19/41/67 17/42/68
f 24/43/69 22/44/70 26/45/71 28/46/72
f 17/42/73 19/41/74 23/47/75 21/48/76
f 20/30/77 18/29/78 22/44/79 24/43/80
f 41/40/81 17/39/82 21/49/83 43/50/84
f 28/51/85 26/52/86 30/53/87 32/54/88
f 43/50/89 21/49/90 25/55/91 45/56/92
f 44/38/93 24/37/94 28/57/95 46/58/96
f 21/48/97 23/47/98 27/59/99 25/60/100
f 48/61/101 32/54/102 30/53/103 47/62/104
f 45/56/105 25/55/106 29/63/107 47/64/108
f 46/58/109 28/57/110 32/65/111 48/66/112
f 25/60/113 27/59/114 31/67/115 29/68/116
f 27/69/117 46/58/118 48/66/119 31/70/120
f 26/71/121 45/56/122 47/64/123 30/72/124
f 31/73/125 48/61/126 47/62/127 29/74/128
f 23/75/129 44/38/130 46/58/131 27/69/132
f 22/76/133 43/50/134 45/56/135 26/71/136
f 18/77/137 41/40/138 43/50/139 22/76/140
f 15/78/141 40/34/142 42/35/143 19/79/144
f 14/80/145 39/32/146 41/40/147 18/77/148
f 19/79/149 42/35/150 44/38/151 23/75/152
f 11/81/153 38/8/154 40/34/155 15/78/156
f 10/82/157 37/26/158 39/32/159 14/80/160
f 6/83/161 35/4/162 37/26/163 10/82/164
f 4/84/165 34/13/166 36/5/167 7/85/168
f 7/85/169 36/5/170 38/8/171 11/81/172
f 2/86/173 33/1/174 35/4/175 6/83/176
