# This file uses centimeters as units for non-parametric coordinates.

mtllib DerTras.mtl
g default
v 0.129183 -0.155904 -0.036811
v 0.112738 -0.140351 0.088054
v -0.117440 0.229147 -0.054527
v -0.080637 0.123378 0.083334
v -0.095533 -0.182190 -0.040033
v -0.123376 -0.135544 0.085687
v -0.229153 0.038749 0.085769
v -0.251460 0.085639 -0.047188
v -0.263103 -0.207579 -0.040033
v -0.287230 -0.167961 0.086503
v -0.384993 -0.015123 0.087229
v -0.367357 0.035340 -0.053549
v -0.398391 -0.208506 -0.039115
v -0.405472 -0.191306 0.084313
v -0.489049 -0.009317 0.083541
v -0.503579 -0.004186 -0.076231
v -0.461564 0.040126 0.083334
v -0.446239 0.064622 -0.059116
v -0.505527 0.025421 0.083334
v -0.504987 0.047426 -0.052074
v 0.060968 -0.044345 0.101712
v 0.064198 -0.062269 -0.111856
v -0.136162 -0.112530 -0.096400
v -0.292241 -0.147475 -0.096400
v -0.447532 -0.151288 0.080364
v -0.425476 -0.157565 -0.081289
v -0.052933 0.119027 -0.108785
v -0.214719 0.022690 -0.098298
v -0.344145 -0.031195 -0.099690
v -0.479088 -0.057665 -0.090340
v -0.482128 -0.061554 0.080364
v 0.093601 -0.167477 0.034307
v -0.121368 0.191023 0.035574
v -0.093161 -0.186185 0.036677
v -0.253535 0.089135 0.030373
v -0.261377 -0.211182 0.036677
v -0.372621 0.036391 0.030373
v -0.405600 -0.207368 0.033715
v -0.503562 -0.004663 0.013472
v -0.448135 0.075840 0.028981
v -0.507619 0.044321 0.028145
v -0.444846 -0.158256 0.014206
v -0.483327 -0.058444 0.011244
v -0.440412 -0.017517 -0.103800
vt 0.130126 0.662530
vt 0.117233 0.668677
vt 0.117822 0.614313
vt 0.129567 0.618106
vt 0.806455 0.766492
vt 0.825068 0.766582
vt 0.826221 0.796918
vt 0.806069 0.797741
vt 0.805717 0.727805
vt 0.827422 0.723690
vt 0.474676 0.492777
vt 0.483333 0.518069
vt 0.430081 0.507448
vt 0.425396 0.489211
vt 0.387201 0.485613
vt 0.389967 0.500820
vt 0.359033 0.490996
vt 0.356197 0.477865
vt 0.506388 0.695701
vt 0.555819 0.714448
vt 0.548424 0.754803
vt 0.500723 0.744636
vt 0.480904 0.691530
vt 0.117630 0.574327
vt 0.129574 0.577578
vt 0.133279 0.856855
vt 0.133868 0.870620
vt 0.112338 0.870814
vt 0.108898 0.856828
vt 0.118158 0.545473
vt 0.130298 0.544428
vt 0.827422 0.811723
vt 0.806296 0.810851
vt 0.548570 0.794379
vt 0.506357 0.784328
vt 0.825558 0.826306
vt 0.806294 0.826939
vt 0.558190 0.817483
vt 0.567177 0.807342
vt 0.567337 0.818466
vt 0.150676 0.868458
vt 0.150662 0.877592
vt 0.137434 0.882126
vt 0.138518 0.817175
vt 0.133891 0.831237
vt 0.110966 0.830111
vt 0.121035 0.816470
vt 0.417412 0.452583
vt 0.383891 0.455294
vt 0.351235 0.451221
vt 0.362889 0.445090
vt 0.461332 0.442728
vt 0.455248 0.412212
vt 0.414160 0.434915
vt 0.368043 0.425412
vt 0.349722 0.437050
vt 0.353437 0.424898
vt 0.383942 0.437868
vt 0.149776 0.832964
vt 0.149866 0.855993
vt 0.150676 0.820801
vt 0.118182 0.882726
vt 0.793152 0.816955
vt 0.793018 0.828053
vt 0.560376 0.787321
vt 0.575283 0.801302
vt 0.147986 0.577407
vt 0.147777 0.546025
vt 0.147980 0.617810
vt 0.575283 0.718172
vt 0.562855 0.756166
vt 0.793124 0.765563
vt 0.792297 0.805057
vt 0.147196 0.671500
vt 0.545919 0.820041
vt 0.522931 0.819307
vt 0.510490 0.812958
vn 0.026161 -0.795754 0.605055
vn 0.026161 -0.795754 0.605055
vn 0.026161 -0.795754 0.605055
vn 0.026161 -0.795754 0.605055
vn -0.400207 0.915369 -0.043969
vn -0.400207 0.915369 -0.043969
vn -0.400207 0.915369 -0.043969
vn -0.400207 0.915369 -0.043969
vn -0.671800 0.729821 0.126670
vn -0.671800 0.729821 0.126670
vn -0.671800 0.729821 0.126670
vn -0.671800 0.729821 0.126670
vn 0.083425 -0.591457 -0.802009
vn 0.083425 -0.591457 -0.802009
vn 0.083425 -0.591457 -0.802009
vn 0.083425 -0.591457 -0.802009
vn -0.016961 -0.668433 -0.743579
vn -0.016961 -0.668433 -0.743579
vn -0.016961 -0.668433 -0.743579
vn -0.016961 -0.668433 -0.743579
vn -0.041754 -0.019601 0.998936
vn -0.041754 -0.019601 0.998936
vn -0.041754 -0.019601 0.998936
vn -0.041754 -0.019601 0.998936
vn -0.041754 -0.019601 0.998936
vn 0.114764 -0.615615 -0.779646
vn 0.114764 -0.615615 -0.779646
vn 0.114764 -0.615615 -0.779646
vn 0.114764 -0.615615 -0.779646
vn 0.120187 -0.684919 0.718638
vn 0.120187 -0.684919 0.718638
vn 0.120187 -0.684919 0.718638
vn 0.120187 -0.684919 0.718638
vn -0.923965 -0.381791 -0.022900
vn -0.923965 -0.381791 -0.022900
vn -0.923965 -0.381791 -0.022900
vn -0.923965 -0.381791 -0.022900
vn 0.053380 -0.853875 0.517733
vn 0.053380 -0.853875 0.517733
vn 0.053380 -0.853875 0.517733
vn 0.053380 -0.853875 0.517733
vn 0.408020 0.911708 -0.048043
vn 0.408020 0.911708 -0.048043
vn 0.408020 0.911708 -0.048043
vn 0.408020 0.911708 -0.048043
vn 0.006669 0.001678 0.999976
vn 0.006669 0.001678 0.999976
vn 0.006669 0.001678 0.999976
vn 0.006669 0.001678 0.999976
vn -0.382840 0.922191 -0.054751
vn -0.382840 0.922191 -0.054751
vn -0.382840 0.922191 -0.054751
vn -0.382840 0.922191 -0.054751
vn -0.026028 0.018638 0.999488
vn -0.026028 0.018638 0.999488
vn -0.026028 0.018638 0.999488
vn -0.026028 0.018638 0.999488
vn -0.964722 -0.250577 0.080759
vn -0.964722 -0.250577 0.080759
vn -0.964722 -0.250577 0.080759
vn -0.964722 -0.250577 0.080759
vn -0.790452 -0.600002 -0.123219
vn -0.790452 -0.600002 -0.123219
vn -0.790452 -0.600002 -0.123219
vn -0.790452 -0.600002 -0.123219
vn 0.009722 -0.015584 -0.999831
vn 0.009722 -0.015584 -0.999831
vn 0.009722 -0.015584 -0.999831
vn 0.009722 -0.015584 -0.999831
vn -0.068337 -0.123364 -0.990006
vn -0.068337 -0.123364 -0.990006
vn -0.068337 -0.123364 -0.990006
vn -0.068337 -0.123364 -0.990006
vn -0.068337 -0.123364 -0.990006
vn -0.058367 -0.032389 -0.997770
vn -0.058367 -0.032389 -0.997770
vn -0.058367 -0.032389 -0.997770
vn -0.058367 -0.032389 -0.997770
vn -0.330465 0.342197 -0.879599
vn -0.330465 0.342197 -0.879599
vn -0.330465 0.342197 -0.879599
vn -0.330465 0.342197 -0.879599
vn -0.296888 0.340874 -0.891999
vn -0.296888 0.340874 -0.891999
vn -0.296888 0.340874 -0.891999
vn -0.296888 0.340874 -0.891999
vn -0.296888 0.340874 -0.891999
vn -0.198257 0.528279 -0.825600
vn -0.198257 0.528279 -0.825600
vn -0.198257 0.528279 -0.825600
vn -0.198257 0.528279 -0.825600
vn -0.899940 -0.421661 -0.110952
vn -0.899940 -0.421661 -0.110952
vn -0.899940 -0.421661 -0.110952
vn -0.899940 -0.421661 -0.110952
vn -0.933057 -0.359728 -0.000000
vn -0.933057 -0.359728 -0.000000
vn -0.933057 -0.359728 -0.000000
vn -0.933057 -0.359728 -0.000000
vn -0.748664 -0.653341 0.112462
vn -0.748664 -0.653341 0.112462
vn -0.748664 -0.653341 0.112462
vn -0.748664 -0.653341 0.112462
vn -0.998716 -0.047938 -0.016375
vn -0.998716 -0.047938 -0.016375
vn -0.998716 -0.047938 -0.016375
vn -0.998716 -0.047938 -0.016375
vn -0.379759 0.842992 0.380982
vn -0.379759 0.842992 0.380982
vn -0.379759 0.842992 0.380982
vn -0.379759 0.842992 0.380982
vn 0.398404 0.674533 0.621514
vn 0.398404 0.674533 0.621514
vn 0.398404 0.674533 0.621514
vn 0.398404 0.674533 0.621514
vn -0.010204 -0.999806 -0.016850
vn -0.010204 -0.999806 -0.016850
vn -0.010204 -0.999806 -0.016850
vn -0.010204 -0.999806 -0.016850
vn -0.963202 -0.251547 0.094692
vn -0.963202 -0.251547 0.094692
vn -0.963202 -0.251547 0.094692
vn -0.963202 -0.251547 0.094692
vn 0.148185 -0.987546 -0.052864
vn 0.148185 -0.987546 -0.052864
vn 0.148185 -0.987546 -0.052864
vn 0.148185 -0.987546 -0.052864
vn -0.342671 0.503910 0.792876
vn -0.342671 0.503910 0.792876
vn -0.342671 0.503910 0.792876
vn -0.342671 0.503910 0.792876
vn -0.267551 0.699007 0.663179
vn -0.267551 0.699007 0.663179
vn -0.267551 0.699007 0.663179
vn -0.267551 0.699007 0.663179
vn 0.108515 -0.990872 -0.079977
vn 0.108515 -0.990872 -0.079977
vn 0.108515 -0.990872 -0.079977
vn 0.108515 -0.990872 -0.079977
vn 0.177501 0.538052 -0.824011
vn 0.177501 0.538052 -0.824011
vn 0.177501 0.538052 -0.824011
vn 0.177501 0.538052 -0.824011
vn -0.044132 -0.021088 0.998803
vn -0.044132 -0.021088 0.998803
vn -0.044132 -0.021088 0.998803
vn -0.044132 -0.021088 0.998803
vn -0.044132 -0.021088 0.998803
vn -0.044132 -0.021088 0.998803
s off
g polySurface18 polySurface15 polySurface13 polySurface11 panda
usemtl Panda_pandaSG4
f 32/1/1 2/2/2 6/3/3 34/4/4
f 35/5/5 8/6/6 12/7/7 37/8/8
f 33/9/9 3/10/10 8/6/11 35/5/12
f 22/11/13 1/12/14 5/13/15 23/14/16
f 24/15/17 9/16/18 13/17/19 26/18/20
f 21/19/21 4/20/22 7/21/23 6/22/24 2/23/25
f 23/14/26 5/13/27 9/16/28 24/15/29
f 34/4/30 6/3/31 10/24/32 36/25/33
f 43/26/34 39/27/35 16/28/36 30/29/37
f 36/25/38 10/24/39 14/30/40 38/31/41
f 37/8/42 12/7/43 18/32/44 40/33/45
f 6/22/46 7/21/47 11/34/48 10/35/49
f 40/33/50 18/32/51 20/36/52 41/37/53
f 15/38/54 11/34/55 17/39/56 19/40/57
f 39/27/58 15/41/59 19/42/60 41/43/61
f 38/44/62 42/45/63 26/46/64 13/47/65
f 28/48/66 23/14/67 24/15/68 29/49/69
f 29/49/70 24/15/71 26/18/72 30/50/73 44/51/74
f 27/52/75 22/11/76 23/14/77 28/48/78
f 3/53/79 27/52/80 28/48/81 8/54/82
f 18/55/83 44/51/84 30/50/85 16/56/86 20/57/87
f 8/54/88 28/48/89 29/49/90 12/58/91
f 42/45/92 43/26/93 30/29/94 26/46/95
f 25/59/96 31/60/97 43/26/98 42/45/99
f 14/61/100 25/59/101 42/45/102 38/44/103
f 16/28/104 39/27/105 41/43/106 20/62/107
f 17/63/108 40/33/109 41/37/110 19/64/111
f 11/34/112 37/65/113 40/66/114 17/39/115
f 9/67/116 36/25/117 38/31/118 13/68/119
f 31/60/120 15/41/121 39/27/122 43/26/123
f 5/69/124 34/4/125 36/25/126 9/67/127
f 4/20/128 33/70/129 35/71/130 7/21/131
f 7/72/132 35/5/133 37/8/134 11/73/135
f 1/74/136 32/1/137 34/4/138 5/69/139
f 44/51/140 18/55/141 12/58/142 29/49/143
f 10/35/144 11/34/145 15/38/146 31/75/147 25/76/148 14/77/149
