# This file uses centimeters as units for non-parametric coordinates.

mtllib IzqTras.mtl
g default
v 0.112871 -0.152401 0.037350
v 0.096426 -0.136848 -0.091428
v -0.133752 0.232649 0.055066
v -0.096949 0.126881 -0.082796
v -0.111845 -0.178687 0.040572
v -0.139689 -0.132041 -0.085148
v -0.245465 0.042252 -0.085230
v -0.267772 0.089141 0.047727
v -0.279415 -0.204077 0.040572
v -0.303542 -0.164458 -0.085964
v -0.401305 -0.011620 -0.086690
v -0.383669 0.038843 0.054088
v -0.414703 -0.205004 0.039654
v -0.421784 -0.187804 -0.083775
v -0.505362 -0.005814 -0.083002
v -0.519891 -0.000683 0.076770
v -0.477876 0.043628 -0.082796
v -0.462551 0.068125 0.059655
v -0.521840 0.028924 -0.082796
v -0.521299 0.050929 0.052613
v 0.044656 -0.040843 -0.101172
v 0.047885 -0.058766 0.112395
v -0.152474 -0.109027 0.096938
v -0.308553 -0.143972 0.096938
v -0.463845 -0.147785 -0.079825
v -0.441789 -0.154062 0.081828
v -0.069245 0.122530 0.109324
v -0.231032 0.026193 0.098837
v -0.360457 -0.027693 0.100229
v -0.495400 -0.054162 0.090879
v -0.498440 -0.058051 -0.079825
v 0.077289 -0.163975 -0.033768
v -0.137681 0.194526 -0.035035
v -0.109474 -0.182682 -0.036138
v -0.269847 0.092638 -0.029834
v -0.277689 -0.207679 -0.036138
v -0.388934 0.039894 -0.029834
v -0.421912 -0.203865 -0.033176
v -0.519874 -0.001160 -0.012933
v -0.464447 0.079343 -0.028442
v -0.523931 0.047824 -0.027606
v -0.461158 -0.154753 -0.013668
v -0.499639 -0.054941 -0.010705
v -0.456724 -0.014014 0.104339
vt 0.073898 0.662530
vt 0.074477 0.618106
vt 0.086258 0.614314
vt 0.087744 0.668677
vt 0.854493 0.785244
vt 0.854096 0.753994
vt 0.874253 0.754808
vt 0.873112 0.785144
vt 0.853702 0.823932
vt 0.875354 0.828037
vt 0.207769 0.506742
vt 0.257109 0.502070
vt 0.253186 0.519843
vt 0.200146 0.531459
vt 0.295250 0.497727
vt 0.326215 0.489250
vt 0.323939 0.502022
vt 0.293184 0.512439
vt 0.700520 0.785387
vt 0.748349 0.775220
vt 0.755712 0.815560
vt 0.706310 0.834173
vt 0.680591 0.838399
vt 0.074484 0.577578
vt 0.086458 0.574327
vt 0.078531 0.842341
vt 0.054149 0.842368
vt 0.057590 0.828382
vt 0.079119 0.828577
vt 0.073786 0.544428
vt 0.085935 0.545473
vt 0.854210 0.740886
vt 0.875354 0.740003
vt 0.706205 0.745720
vt 0.748537 0.735665
vt 0.854211 0.724798
vt 0.873472 0.725421
vt 0.758164 0.712603
vt 0.767333 0.711621
vt 0.767164 0.722737
vt 0.082686 0.817071
vt 0.095915 0.821604
vt 0.095929 0.830738
vt 0.083770 0.882022
vt 0.066287 0.882726
vt 0.056218 0.869085
vt 0.079142 0.867959
vt 0.264325 0.465400
vt 0.297911 0.467454
vt 0.318685 0.456899
vt 0.330565 0.462662
vt 0.220105 0.456536
vt 0.722789 0.710807
vt 0.745835 0.710071
vt 0.710349 0.717126
vt 0.225931 0.425491
vt 0.267564 0.447254
vt 0.313427 0.436973
vt 0.328079 0.436107
vt 0.331882 0.448371
vt 0.297816 0.449660
vt 0.095028 0.866233
vt 0.095117 0.843204
vt 0.095929 0.878395
vt 0.063435 0.816470
vt 0.841108 0.734788
vt 0.840964 0.723690
vt 0.774794 0.729141
vt 0.759852 0.743104
vt 0.056073 0.577407
vt 0.056305 0.546025
vt 0.056067 0.617810
vt 0.762315 0.774235
vt 0.774794 0.812162
vt 0.841253 0.786178
vt 0.840391 0.746684
vt 0.056830 0.671500
vn 0.021062 -0.806832 -0.590406
vn 0.021062 -0.806832 -0.590406
vn 0.021062 -0.806832 -0.590406
vn 0.021062 -0.806832 -0.590406
vn -0.400207 0.915369 0.043969
vn -0.400207 0.915369 0.043969
vn -0.400207 0.915369 0.043969
vn -0.400207 0.915369 0.043969
vn -0.671800 0.729821 -0.126670
vn -0.671800 0.729821 -0.126670
vn -0.671800 0.729821 -0.126670
vn -0.671800 0.729821 -0.126670
vn 0.083425 -0.591457 0.802009
vn 0.083425 -0.591457 0.802009
vn 0.083425 -0.591457 0.802009
vn 0.083425 -0.591457 0.802009
vn -0.016961 -0.668433 0.743579
vn -0.016961 -0.668433 0.743579
vn -0.016961 -0.668433 0.743579
vn -0.016961 -0.668433 0.743579
vn -0.045279 -0.012472 -0.998897
vn -0.045279 -0.012472 -0.998897
vn -0.045279 -0.012472 -0.998897
vn -0.045279 -0.012472 -0.998897
vn -0.045279 -0.012472 -0.998897
vn 0.114763 -0.615615 0.779646
vn 0.114763 -0.615615 0.779646
vn 0.114763 -0.615615 0.779646
vn 0.114763 -0.615615 0.779646
vn 0.120187 -0.684919 -0.718638
vn 0.120187 -0.684919 -0.718638
vn 0.120187 -0.684919 -0.718638
vn 0.120187 -0.684919 -0.718638
vn -0.923965 -0.381791 0.022900
vn -0.923965 -0.381791 0.022900
vn -0.923965 -0.381791 0.022900
vn -0.923965 -0.381791 0.022900
vn 0.053380 -0.853875 -0.517733
vn 0.053380 -0.853875 -0.517733
vn 0.053380 -0.853875 -0.517733
vn 0.053380 -0.853875 -0.517733
vn 0.408020 0.911708 0.048043
vn 0.408020 0.911708 0.048043
vn 0.408020 0.911708 0.048043
vn 0.408020 0.911708 0.048043
vn 0.006670 0.001679 -0.999976
vn 0.006670 0.001679 -0.999976
vn 0.006670 0.001679 -0.999976
vn 0.006670 0.001679 -0.999976
vn -0.382840 0.922191 0.054751
vn -0.382840 0.922191 0.054751
vn -0.382840 0.922191 0.054751
vn -0.382840 0.922191 0.054751
vn -0.026027 0.018638 -0.999488
vn -0.026027 0.018638 -0.999488
vn -0.026027 0.018638 -0.999488
vn -0.026027 0.018638 -0.999488
vn -0.964722 -0.250577 -0.080759
vn -0.964722 -0.250577 -0.080759
vn -0.964722 -0.250577 -0.080759
vn -0.964722 -0.250577 -0.080759
vn -0.790452 -0.600002 0.123219
vn -0.790452 -0.600002 0.123219
vn -0.790452 -0.600002 0.123219
vn -0.790452 -0.600002 0.123219
vn 0.009722 -0.015584 0.999831
vn 0.009722 -0.015584 0.999831
vn 0.009722 -0.015584 0.999831
vn 0.009722 -0.015584 0.999831
vn -0.068338 -0.123365 0.990005
vn -0.068338 -0.123365 0.990005
vn -0.068338 -0.123365 0.990005
vn -0.068338 -0.123365 0.990005
vn -0.068338 -0.123365 0.990005
vn -0.058367 -0.032389 0.997770
vn -0.058367 -0.032389 0.997770
vn -0.058367 -0.032389 0.997770
vn -0.058367 -0.032389 0.997770
vn -0.044132 -0.021088 -0.998803
vn -0.044132 -0.021088 -0.998803
vn -0.044132 -0.021088 -0.998803
vn -0.044132 -0.021088 -0.998803
vn -0.044132 -0.021088 -0.998803
vn -0.044132 -0.021088 -0.998803
vn -0.330465 0.342197 0.879599
vn -0.330465 0.342197 0.879599
vn -0.330465 0.342197 0.879599
vn -0.330465 0.342197 0.879599
vn -0.296888 0.340874 0.891999
vn -0.296888 0.340874 0.891999
vn -0.296888 0.340874 0.891999
vn -0.296888 0.340874 0.891999
vn -0.296888 0.340874 0.891999
vn -0.198257 0.528279 0.825600
vn -0.198257 0.528279 0.825600
vn -0.198257 0.528279 0.825600
vn -0.198257 0.528279 0.825600
vn -0.899940 -0.421661 0.110952
vn -0.899940 -0.421661 0.110952
vn -0.899940 -0.421661 0.110952
vn -0.899940 -0.421661 0.110952
vn -0.933057 -0.359728 -0.000000
vn -0.933057 -0.359728 -0.000000
vn -0.933057 -0.359728 -0.000000
vn -0.933057 -0.359728 -0.000000
vn -0.748664 -0.653341 -0.112463
vn -0.748664 -0.653341 -0.112463
vn -0.748664 -0.653341 -0.112463
vn -0.748664 -0.653341 -0.112463
vn -0.998716 -0.047938 0.016375
vn -0.998716 -0.047938 0.016375
vn -0.998716 -0.047938 0.016375
vn -0.998716 -0.047938 0.016375
vn -0.379759 0.842992 -0.380982
vn -0.379759 0.842992 -0.380982
vn -0.379759 0.842992 -0.380982
vn -0.379759 0.842992 -0.380982
vn 0.398404 0.674534 -0.621513
vn 0.398404 0.674534 -0.621513
vn 0.398404 0.674534 -0.621513
vn 0.398404 0.674534 -0.621513
vn -0.010204 -0.999806 0.016849
vn -0.010204 -0.999806 0.016849
vn -0.010204 -0.999806 0.016849
vn -0.010204 -0.999806 0.016849
vn -0.963202 -0.251548 -0.094693
vn -0.963202 -0.251548 -0.094693
vn -0.963202 -0.251548 -0.094693
vn -0.963202 -0.251548 -0.094693
vn 0.148185 -0.987546 0.052864
vn 0.148185 -0.987546 0.052864
vn 0.148185 -0.987546 0.052864
vn 0.148185 -0.987546 0.052864
vn -0.342670 0.503910 -0.792876
vn -0.342670 0.503910 -0.792876
vn -0.342670 0.503910 -0.792876
vn -0.342670 0.503910 -0.792876
vn -0.267551 0.699007 -0.663179
vn -0.267551 0.699007 -0.663179
vn -0.267551 0.699007 -0.663179
vn -0.267551 0.699007 -0.663179
vn 0.108515 -0.990872 0.079977
vn 0.108515 -0.990872 0.079977
vn 0.108515 -0.990872 0.079977
vn 0.108515 -0.990872 0.079977
vn 0.177501 0.538051 0.824011
vn 0.177501 0.538051 0.824011
vn 0.177501 0.538051 0.824011
vn 0.177501 0.538051 0.824011
s off
g polySurface16 polySurface13 polySurface11 panda
usemtl Panda_pandaSG4
f 32/1/1 34/2/2 6/3/3 2/4/4
f 35/5/5 37/6/6 12/7/7 8/8/8
f 33/9/9 35/5/10 8/8/11 3/10/12
f 22/11/13 23/12/14 5/13/15 1/14/16
f 24/15/17 26/16/18 13/17/19 9/18/20
f 6/19/21 7/20/22 4/21/23 21/22/24 2/23/25
f 23/12/26 24/15/27 9/18/28 5/13/29
f 34/2/30 36/24/31 10/25/32 6/3/33
f 43/26/34 30/27/35 16/28/36 39/29/37
f 36/24/38 38/30/39 14/31/40 10/25/41
f 37/6/42 40/32/43 18/33/44 12/7/45
f 10/34/46 11/35/47 7/20/48 6/19/49
f 40/32/50 41/36/51 20/37/52 18/33/53
f 15/38/54 19/39/55 17/40/56 11/35/57
f 39/29/58 41/41/59 19/42/60 15/43/61
f 38/44/62 13/45/63 26/46/64 42/47/65
f 28/48/66 29/49/67 24/15/68 23/12/69
f 29/49/70 44/50/71 30/51/72 26/16/73 24/15/74
f 27/52/75 28/48/76 23/12/77 22/11/78
f 25/53/79 31/54/80 15/38/81 11/35/82 10/34/83 14/55/84
f 3/56/85 8/57/86 28/48/87 27/52/88
f 18/58/89 20/59/90 16/60/91 30/51/92 44/50/93
f 8/57/94 12/61/95 29/49/96 28/48/97
f 42/47/98 26/46/99 30/27/100 43/26/101
f 25/62/102 42/47/103 43/26/104 31/63/105
f 14/64/106 38/44/107 42/47/108 25/62/109
f 16/28/110 20/65/111 41/41/112 39/29/113
f 17/66/114 19/67/115 41/36/116 40/32/117
f 11/35/118 17/40/119 40/68/120 37/69/121
f 9/70/122 13/71/123 38/30/124 36/24/125
f 31/63/126 43/26/127 39/29/128 15/43/129
f 5/72/130 9/70/131 36/24/132 34/2/133
f 4/21/134 7/20/135 35/73/136 33/74/137
f 7/75/138 11/76/139 37/6/140 35/5/141
f 1/77/142 5/72/143 34/2/144 32/1/145
f 44/50/146 29/49/147 12/61/148 18/58/149
