# This file uses centimeters as units for non-parametric coordinates.

mtllib IzqDel.mtl
g default
v 0.068165 -0.253464 0.145189
v 0.071203 0.227428 0.067916
v -0.090116 0.192456 -0.132130
v -0.073442 -0.252478 -0.031909
v -0.207616 -0.273599 0.167406
v -0.184917 0.049842 0.107544
v -0.260678 -0.261775 0.055105
v -0.257508 -0.034638 0.000925
v -0.380688 -0.280131 0.238544
v -0.388167 -0.049646 0.209599
v -0.430985 -0.285977 0.144898
v -0.451496 -0.147618 0.118787
v -0.471226 -0.254966 0.276383
v -0.525931 -0.241197 0.190457
v -0.481624 -0.018486 0.250765
v -0.558396 -0.072909 0.161163
v -0.550460 -0.022798 0.285286
v -0.597304 -0.092127 0.184175
v 0.051171 -0.124163 0.181041
v -0.065397 -0.145559 -0.093423
v -0.173470 -0.192938 0.211465
v -0.357826 -0.223169 0.292262
v -0.454087 -0.210544 0.335038
v 0.105422 0.084980 0.144804
v -0.166787 -0.037455 0.181016
v -0.369468 -0.119414 0.279518
v -0.496777 -0.124579 0.341222
v -0.070150 0.059211 -0.128402
v -0.051750 0.220267 -0.067802
v -0.228197 0.043959 0.027359
v -0.420794 -0.064928 0.143324
v -0.519987 -0.018335 0.184548
v -0.588669 -0.018192 0.220369
v -0.454856 -0.105652 0.316753
vt 0.216597 0.740606
vt 0.216388 0.716717
vt 0.232349 0.716828
vt 0.232511 0.738314
vt 0.606279 0.846954
vt 0.611512 0.787246
vt 0.633005 0.790952
vt 0.646103 0.863456
vt 0.230581 0.782269
vt 0.257890 0.737280
vt 0.259617 0.783581
vt 0.204332 0.264412
vt 0.257233 0.260580
vt 0.264439 0.274658
vt 0.205637 0.293966
vt 0.621893 0.728513
vt 0.625363 0.708645
vt 0.643182 0.711818
vt 0.639674 0.731827
vt 0.214779 0.789232
vt 0.299069 0.228346
vt 0.319421 0.218517
vt 0.331882 0.219528
vt 0.328546 0.242282
vt 0.305313 0.252704
vt 0.207480 0.843312
vt 0.259617 0.832307
vt 0.291546 0.556185
vt 0.290861 0.544428
vt 0.307202 0.548492
vt 0.300845 0.565946
vt 0.232766 0.565863
vt 0.265146 0.575839
vt 0.272366 0.636191
vt 0.222491 0.611262
vt 0.251489 0.545811
vt 0.307202 0.702175
vt 0.275701 0.694828
vt 0.229899 0.675315
vt 0.207480 0.658540
vt 0.241764 0.225974
vt 0.175067 0.221931
vt 0.163254 0.185717
vt 0.230912 0.203511
vt 0.289939 0.209803
vt 0.311162 0.195472
vt 0.329141 0.191065
vt 0.281415 0.586250
vt 0.287862 0.645790
vt 0.588252 0.841186
vt 0.601613 0.776125
vt 0.522201 0.887565
vt 0.499409 0.896992
vt 0.482817 0.889692
vt 0.480904 0.867053
vt 0.492279 0.838577
vt 0.509515 0.833010
vt 0.522201 0.848139
vt 0.628693 0.691530
vt 0.646103 0.694376
vt 0.255784 0.715145
vn 0.122942 -0.758213 0.640311
vn 0.122942 -0.758213 0.640311
vn 0.122942 -0.758213 0.640311
vn 0.122942 -0.758213 0.640311
vn -0.522871 0.774614 0.355779
vn -0.522871 0.774614 0.355779
vn -0.522871 0.774614 0.355779
vn -0.522871 0.774614 0.355779
vn 0.061224 -0.996340 -0.059644
vn 0.061224 -0.996340 -0.059644
vn 0.061224 -0.996340 -0.059644
vn 0.061224 -0.996340 -0.059644
vn 0.160974 -0.362524 0.917967
vn 0.160974 -0.362524 0.917967
vn 0.160974 -0.362524 0.917967
vn 0.160974 -0.362524 0.917967
vn 0.268491 0.930250 -0.250094
vn 0.268491 0.930250 -0.250094
vn 0.268491 0.930250 -0.250094
vn 0.268491 0.930250 -0.250094
vn -0.424690 0.900862 0.089922
vn -0.424690 0.900862 0.089922
vn -0.424690 0.900862 0.089922
vn -0.424690 0.900862 0.089922
vn 0.356671 -0.634749 0.685477
vn 0.356671 -0.634749 0.685477
vn 0.356671 -0.634749 0.685477
vn 0.356671 -0.634749 0.685477
vn 0.422362 0.157756 0.892594
vn 0.422362 0.157756 0.892594
vn 0.422362 0.157756 0.892594
vn 0.422362 0.157756 0.892594
vn 0.422362 0.157756 0.892594
vn 0.045671 -0.996151 -0.074813
vn 0.045671 -0.996151 -0.074813
vn 0.045671 -0.996151 -0.074813
vn 0.045671 -0.996151 -0.074813
vn -0.480922 0.507511 -0.714945
vn -0.480922 0.507511 -0.714945
vn -0.480922 0.507511 -0.714945
vn -0.480922 0.507511 -0.714945
vn -0.421845 -0.213581 -0.881152
vn -0.421845 -0.213581 -0.881152
vn -0.421845 -0.213581 -0.881152
vn -0.421845 -0.213581 -0.881152
vn -0.484414 -0.236338 -0.842310
vn -0.484414 -0.236338 -0.842310
vn -0.484414 -0.236338 -0.842310
vn -0.484414 -0.236338 -0.842310
vn -0.484414 -0.236338 -0.842310
vn -0.496467 -0.204283 -0.843676
vn -0.496467 -0.204283 -0.843676
vn -0.496467 -0.204283 -0.843676
vn -0.496467 -0.204283 -0.843676
vn -0.496467 -0.204283 -0.843676
vn -0.496467 -0.204283 -0.843676
vn 0.376600 0.159251 0.912585
vn 0.376600 0.159251 0.912585
vn 0.376600 0.159251 0.912585
vn 0.376600 0.159251 0.912585
vn 0.066985 0.168654 0.983397
vn 0.066985 0.168654 0.983397
vn 0.066985 0.168654 0.983397
vn 0.066985 0.168654 0.983397
vn -0.170028 0.512222 0.841854
vn -0.170028 0.512222 0.841854
vn -0.170028 0.512222 0.841854
vn -0.170028 0.512222 0.841854
vn 0.056867 0.680377 0.730653
vn 0.056867 0.680377 0.730653
vn 0.056867 0.680377 0.730653
vn 0.056867 0.680377 0.730653
vn 0.273785 0.601075 0.750833
vn 0.273785 0.601075 0.750833
vn 0.273785 0.601075 0.750833
vn 0.273785 0.601075 0.750833
vn -0.635744 0.437521 -0.635928
vn -0.635744 0.437521 -0.635928
vn -0.635744 0.437521 -0.635928
vn -0.635744 0.437521 -0.635928
vn -0.140595 0.388690 -0.910579
vn -0.140595 0.388690 -0.910579
vn -0.140595 0.388690 -0.910579
vn -0.140595 0.388690 -0.910579
vn -0.788077 0.603734 -0.120170
vn -0.788077 0.603734 -0.120170
vn -0.788077 0.603734 -0.120170
vn -0.788077 0.603734 -0.120170
vn -0.822449 -0.313384 0.474729
vn -0.822449 -0.313384 0.474729
vn -0.822449 -0.313384 0.474729
vn -0.822449 -0.313384 0.474729
vn -0.822449 -0.313384 0.474729
vn -0.822449 -0.313384 0.474729
vn -0.822449 -0.313384 0.474729
vn -0.009044 0.999096 0.041528
vn -0.009044 0.999096 0.041528
vn -0.009044 0.999096 0.041528
vn -0.009044 0.999096 0.041528
vn 0.434755 0.658216 0.614605
vn 0.434755 0.658216 0.614605
vn 0.434755 0.658216 0.614605
vn 0.434755 0.658216 0.614605
vn -0.297214 -0.945633 0.132069
vn -0.297214 -0.945633 0.132069
vn -0.297214 -0.945633 0.132069
vn -0.297214 -0.945633 0.132069
s off
g polySurface14 polySurface11 panda
usemtl lambert68SG
f 22/1/1 23/2/2 13/3/3 9/4/4
f 29/5/5 30/6/6 6/7/7 2/8/8
f 5/9/9 9/4/10 11/10/11 7/11/12
f 19/12/13 21/13/14 5/14/15 1/15/16
f 31/16/17 32/17/18 15/18/19 10/19/20
f 30/6/21 31/16/22 10/19/23 6/7/24
f 21/20/25 22/1/26 9/4/27 5/9/28
f 26/21/29 34/22/30 27/23/31 23/24/32 22/25/33
f 1/26/34 5/9/35 7/11/36 4/27/37
f 16/28/38 18/29/39 33/30/40 32/31/41
f 11/32/42 12/33/43 8/34/44 7/35/45
f 12/33/46 11/32/47 14/36/48 18/29/49 16/28/50
f 7/35/51 8/34/52 3/37/53 28/38/54 20/39/55 4/40/56
f 25/41/57 26/21/58 22/25/59 21/13/60
f 24/42/61 25/41/62 21/13/63 19/12/64
f 2/43/65 6/44/66 25/41/67 24/42/68
f 6/44/69 10/45/70 26/21/71 25/41/72
f 27/23/73 34/22/74 15/46/75 17/47/76
f 8/34/77 12/33/78 31/48/79 30/49/80
f 12/33/81 16/28/82 32/31/83 31/48/84
f 3/50/85 8/51/86 30/6/87 29/5/88
f 14/52/89 13/53/90 23/54/91 27/55/92 17/56/93 33/57/94 18/58/95
f 32/17/96 33/59/97 17/60/98 15/18/99
f 15/46/100 34/22/101 26/21/102 10/45/103
f 11/10/104 9/4/105 13/3/106 14/61/107
