# This file uses centimeters as units for non-parametric coordinates.

mtllib IzqFront.mtl
g default
v -0.359100 -0.719492 0.034916
v -0.359893 -0.719492 -0.010654
v -0.374227 -0.731452 0.022051
v -0.374564 -0.731452 0.002731
v -0.037578 -0.244852 -0.036194
v 0.153356 -0.249022 -0.025516
v 0.154034 -0.163202 0.013216
v -0.041742 -0.244852 0.027335
v 0.059254 -0.246938 0.047563
v 0.057768 -0.246938 -0.037853
v -0.045807 -0.336888 0.033261
v -0.041846 -0.336888 -0.041974
v 0.068255 -0.339259 0.053261
v 0.176425 -0.341629 0.037486
v 0.175219 -0.341629 -0.031752
v 0.066565 -0.339259 -0.043861
v -0.074981 -0.437553 0.029278
v -0.070865 -0.437553 -0.036978
v 0.029059 -0.439704 0.049453
v 0.127206 -0.441856 0.033851
v 0.126158 -0.441856 -0.026407
v 0.027524 -0.439704 -0.038691
v -0.118766 -0.529028 0.024486
v -0.114457 -0.529028 -0.030664
v -0.027125 -0.530908 0.044875
v 0.058624 -0.532788 0.029490
v 0.057768 -0.532788 -0.019660
v -0.028466 -0.530907 -0.032162
v -0.166606 -0.642132 0.024136
v -0.162256 -0.642132 -0.028650
v -0.100250 -0.643460 0.044966
v -0.039785 -0.644787 0.030021
v -0.040600 -0.644787 -0.016767
v -0.101550 -0.643460 -0.029707
v -0.187271 -0.753791 0.046481
v -0.188571 -0.753791 -0.028192
v -0.126564 -0.755118 0.045424
v -0.066100 -0.756446 0.030479
v -0.066914 -0.756446 -0.016309
v -0.127864 -0.755118 -0.029249
v -0.332125 -0.706724 0.049003
v -0.333425 -0.706724 -0.025671
v -0.329346 -0.766784 0.048953
v -0.330646 -0.766784 -0.025719
v 0.103370 0.020781 0.083694
v -0.099276 -0.007557 0.091255
v 0.002493 0.001756 0.104255
v -0.357404 -0.756143 0.034887
v -0.358197 -0.756143 -0.010682
v -0.373509 -0.746989 0.022037
v -0.373845 -0.746989 0.002718
v -0.359893 -0.719492 -0.010654
v -0.359100 -0.719492 0.034916
v -0.374564 -0.731452 0.002731
v -0.374227 -0.731452 0.022051
vt 0.000000 0.000000
vt 0.000000 0.000000
vt 0.000000 0.000000
vt 0.000000 0.000000
vt 0.000000 0.000000
vt 0.000000 0.000000
vt 0.000000 0.000000
vt 0.000000 0.000000
vt 0.000000 0.000000
vt 0.000000 0.000000
vt 0.000000 0.000000
vt 0.000000 0.000000
vt 0.000000 0.000000
vt 0.000000 0.000000
vt 0.000000 0.000000
vt 0.000000 0.000000
vt 0.000000 0.000000
vt 0.000000 0.000000
vt 0.000000 0.000000
vt 0.000000 0.000000
vt 0.000000 0.000000
vt 0.000000 0.000000
vt 0.000000 0.000000
vt 0.000000 0.000000
vt 0.000000 0.000000
vt 0.000000 0.000000
vt 0.000000 0.000000
vt 0.000000 0.000000
vt 0.000000 0.000000
vt 0.000000 0.000000
vt 0.000000 0.000000
vt 0.000000 0.000000
vt 0.000000 0.000000
vt 0.000000 0.000000
vt 0.000000 0.000000
vt 0.000000 0.000000
vt 0.000000 0.000000
vt 0.000000 0.000000
vt 0.000000 0.000000
vt 0.000000 0.000000
vt 0.000000 0.000000
vt 0.000000 0.000000
vt 0.000000 0.000000
vt 0.000000 0.000000
vt 0.000000 0.000000
vt 0.000000 0.000000
vt 0.000000 0.500000
vt 0.000000 0.500000
vt 0.000000 0.500000
vt 0.000000 0.000000
vt 0.000000 0.000000
vt 0.000000 0.000000
vt 0.000000 0.000000
vt 0.000000 0.000000
vt 0.000000 0.000000
vt 0.000000 0.000000
vt 0.000000 0.000000
vn -0.625819 0.779892 0.010901
vn -0.625819 0.779892 0.010901
vn -0.625819 0.779892 0.010901
vn -0.625819 0.779892 0.010901
vn 0.979047 0.150749 -0.136897
vn 0.979047 0.150749 -0.136897
vn 0.979047 0.150749 -0.136897
vn 0.979047 0.150749 -0.136897
vn 0.188465 0.129599 0.973491
vn 0.188465 0.129599 0.973491
vn 0.188465 0.129599 0.973491
vn 0.188465 0.129599 0.973491
vn -0.180635 0.023319 0.983274
vn -0.180635 0.023319 0.983274
vn -0.180635 0.023319 0.983274
vn -0.180635 0.023319 0.983274
vn 0.147405 -0.101435 0.983861
vn 0.147405 -0.101435 0.983861
vn 0.147405 -0.101435 0.983861
vn 0.147405 -0.101435 0.983861
vn 0.120249 0.085421 -0.989062
vn 0.120249 0.085421 -0.989062
vn 0.120249 0.085421 -0.989062
vn 0.120249 0.085421 -0.989062
vn -0.015984 0.063415 -0.997859
vn -0.015984 0.063415 -0.997859
vn -0.015984 0.063415 -0.997859
vn -0.015984 0.063415 -0.997859
vn -0.182426 0.057003 0.981566
vn -0.182426 0.057003 0.981566
vn -0.182426 0.057003 0.981566
vn -0.182426 0.057003 0.981566
vn -0.997274 0.045106 -0.058389
vn -0.997274 0.045106 -0.058389
vn -0.997274 0.045106 -0.058389
vn -0.997274 0.045106 -0.058389
vn 0.127798 -0.158639 -0.979031
vn 0.127798 -0.158639 -0.979031
vn 0.127798 -0.158639 -0.979031
vn 0.127798 -0.158639 -0.979031
vn -0.900803 0.429704 -0.062518
vn -0.900803 0.429704 -0.062518
vn -0.900803 0.429704 -0.062518
vn -0.900803 0.429704 -0.062518
vn 0.897726 -0.440278 -0.015626
vn 0.897725 -0.440278 -0.015626
vn 0.897726 -0.440278 -0.015626
vn 0.897725 -0.440278 -0.015626
vn -0.959307 0.277006 -0.054758
vn -0.959307 0.277006 -0.054758
vn -0.959307 0.277006 -0.054758
vn -0.959307 0.277006 -0.054758
vn 0.114073 -0.101864 -0.988236
vn 0.114073 -0.101864 -0.988236
vn 0.114073 -0.101864 -0.988236
vn 0.114073 -0.101864 -0.988236
vn -0.018359 -0.044281 -0.998850
vn -0.018359 -0.044281 -0.998850
vn -0.018359 -0.044281 -0.998850
vn -0.018359 -0.044281 -0.998850
vn 0.751119 -0.660037 -0.013083
vn 0.751119 -0.660037 -0.013083
vn 0.751119 -0.660037 -0.013083
vn 0.751119 -0.660037 -0.013083
vn -0.247728 0.131697 0.959837
vn -0.247728 0.131697 0.959837
vn -0.247728 0.131697 0.959837
vn -0.247728 0.131697 0.959837
vn -0.018693 -0.059980 -0.998025
vn -0.018693 -0.059980 -0.998025
vn -0.018693 -0.059980 -0.998025
vn -0.018693 -0.059980 -0.998025
vn 0.160707 -0.157907 0.974289
vn 0.160707 -0.157907 0.974289
vn 0.160707 -0.157907 0.974289
vn 0.160707 -0.157907 0.974289
vn -0.201426 0.060078 0.977660
vn -0.201426 0.060078 0.977660
vn -0.201426 0.060078 0.977660
vn -0.201426 0.060078 0.977660
vn 0.798620 -0.601675 -0.013902
vn 0.798620 -0.601675 -0.013902
vn 0.798620 -0.601675 -0.013902
vn 0.798620 -0.601675 -0.013902
vn -0.017408 0.000000 -0.999848
vn -0.017408 0.000000 -0.999848
vn -0.017408 0.000000 -0.999848
vn -0.017408 0.000000 -0.999848
vn 0.206293 -0.052625 -0.977074
vn 0.206293 -0.052625 -0.977074
vn 0.206293 -0.052625 -0.977074
vn 0.206293 -0.052625 -0.977074
vn -0.918751 0.387896 -0.073718
vn -0.918751 0.387896 -0.073718
vn -0.918751 0.387896 -0.073718
vn -0.918751 0.387896 -0.073718
vn 0.165258 -0.149396 -0.974870
vn 0.165258 -0.149396 -0.974870
vn 0.165258 -0.149396 -0.974870
vn 0.165258 -0.149396 -0.974870
vn -0.017643 -0.010344 -0.999791
vn -0.017643 -0.010344 -0.999791
vn -0.017643 -0.010344 -0.999791
vn -0.017643 -0.010344 -0.999791
vn 0.197735 -0.148362 0.968963
vn 0.197735 -0.148362 0.968963
vn 0.197735 -0.148362 0.968963
vn 0.197735 -0.148362 0.968963
vn -0.021852 -0.999761 0.000381
vn -0.021852 -0.999761 0.000381
vn -0.021852 -0.999761 0.000381
vn -0.021852 -0.999761 0.000381
vn -0.021852 -0.999761 0.000380
vn -0.021852 -0.999761 0.000380
vn -0.021852 -0.999761 0.000380
vn -0.021852 -0.999761 0.000380
vn 0.238535 -0.052236 0.969728
vn 0.238535 -0.052236 0.969728
vn 0.238535 -0.052236 0.969728
vn 0.238535 -0.052236 0.969728
vn -0.149745 0.131563 0.979933
vn -0.149745 0.131563 0.979932
vn -0.149745 0.131563 0.979932
vn -0.149745 0.131563 0.979933
vn 0.973181 -0.229417 -0.016941
vn 0.973181 -0.229417 -0.016941
vn 0.973181 -0.229417 -0.016941
vn 0.973181 -0.229417 -0.016941
vn -0.017404 -0.000001 -0.999849
vn -0.017404 -0.000001 -0.999849
vn -0.017404 -0.000001 -0.999849
vn -0.017404 -0.000001 -0.999849
vn -0.430996 0.902323 0.007503
vn -0.430996 0.902323 0.007503
vn -0.430996 0.902323 0.007503
vn -0.430996 0.902323 0.007503
vn 0.091044 -0.995846 -0.001584
vn 0.091044 -0.995846 -0.001584
vn 0.091044 -0.995846 -0.001584
vn 0.091044 -0.995846 -0.001584
vn 0.057119 0.122687 0.990800
vn 0.057119 0.122687 0.990800
vn 0.057119 0.122687 0.990800
vn 0.057119 0.122687 0.990800
vn -0.358832 0.933363 -0.008589
vn -0.358832 0.933363 -0.008589
vn -0.358832 0.933363 -0.008589
vn -0.358832 0.933363 -0.008589
vn 0.353145 -0.182042 0.917687
vn 0.353145 -0.182042 0.917687
vn 0.353145 -0.182042 0.917687
vn 0.353145 -0.182042 0.917687
vn -0.146288 -0.270552 0.951526
vn -0.146288 -0.270552 0.951526
vn -0.146288 -0.270552 0.951526
vn -0.146288 -0.270552 0.951526
vn -0.633728 -0.029957 0.772975
vn -0.633728 -0.029957 0.772975
vn -0.633728 -0.029957 0.772975
vn -0.633728 -0.029957 0.772975
vn -0.454663 -0.021770 0.890397
vn -0.454663 -0.021770 0.890397
vn -0.454663 -0.021770 0.890397
vn -0.454663 -0.021770 0.890397
vn -0.357329 -0.933958 0.006219
vn -0.357330 -0.933958 0.006219
vn -0.357330 -0.933958 0.006219
vn -0.357329 -0.933958 0.006219
vn -0.485397 -0.021769 -0.874023
vn -0.485397 -0.021769 -0.874023
vn -0.485397 -0.021769 -0.874023
vn -0.485397 -0.021769 -0.874023
vn -0.998780 -0.046217 0.017389
vn -0.998780 -0.046217 0.017389
vn -0.998780 -0.046217 0.017389
vn -0.998780 -0.046217 0.017389
vn -0.499335 -0.866365 0.008689
vn -0.499335 -0.866365 0.008689
vn -0.499335 -0.866365 0.008689
vn -0.499335 -0.866365 0.008689
vn -0.660228 -0.029964 -0.750467
vn -0.660228 -0.029964 -0.750467
vn -0.660228 -0.029964 -0.750468
vn -0.660228 -0.029964 -0.750467
s off
g Tigre:polySurface4
usemtl Tigre:lambert2SG
f 1/1/1 2/2/2 4/3/3 3/4/4
f 6/5/5 7/6/6 14/7/7 15/8/8
f 7/6/9 9/9/10 13/10/11 14/7/12
f 13/10/13 11/11/14 17/12/15 19/13/16
f 14/7/17 13/10/18 19/13/19 20/14/20
f 10/15/21 6/5/22 15/8/23 16/16/24
f 5/17/25 10/15/26 16/16/27 12/18/28
f 9/9/29 8/19/30 11/11/31 13/10/32
f 8/19/33 5/17/34 12/18/35 11/11/36
f 22/20/37 21/21/38 27/22/39 28/23/40
f 17/12/41 18/24/42 24/25/43 23/26/44
f 15/8/45 14/7/46 20/14/47 21/21/48
f 11/11/49 12/18/50 18/24/51 17/12/52
f 16/16/53 15/8/54 21/21/55 22/20/56
f 12/18/57 16/16/58 22/20/59 18/24/60
f 27/22/61 26/27/62 32/28/63 33/29/64
f 25/30/65 23/26/66 29/31/67 31/32/68
f 18/24/69 22/20/70 28/23/71 24/25/72
f 20/14/73 19/13/74 25/30/75 26/27/76
f 19/13/77 17/12/78 23/26/79 25/30/80
f 21/21/81 20/14/82 26/27/83 27/22/84
f 30/33/85 34/34/86 40/35/87 36/36/88
f 34/34/89 33/29/90 39/37/91 40/35/92
f 23/26/93 24/25/94 30/33/95 29/31/96
f 28/23/97 27/22/98 33/29/99 34/34/100
f 24/25/101 28/23/102 34/34/103 30/33/104
f 26/27/105 25/30/106 31/32/107 32/28/108
f 40/35/109 39/37/110 38/38/111 37/39/112
f 36/36/113 40/35/114 37/39/115 35/40/116
f 32/28/117 31/32/118 37/39/119 38/38/120
f 31/32/121 29/31/122 35/40/123 37/39/124
f 33/29/125 32/28/126 38/38/127 39/37/128
f 30/33/129 36/36/130 44/41/131 42/42/132
f 41/43/133 42/42/134 52/44/135 53/45/136
f 36/36/137 35/40/138 43/46/139 44/41/140
f 35/40/141 29/31/142 41/43/143 43/46/144
f 29/31/145 30/33/146 42/42/147 41/43/148
f 7/6/149 45/47/150 47/48/151 9/9/152
f 9/9/153 47/48/154 46/49/155 8/19/156
f 48/50/157 53/45/158 55/51/159 50/52/160
f 43/46/161 41/43/162 53/53/163 48/50/164
f 44/41/165 43/46/166 48/50/167 49/54/168
f 42/42/169 44/41/170 49/54/171 52/55/172
f 55/51/173 54/56/174 51/57/175 50/52/176
f 49/54/177 48/50/178 50/52/179 51/57/180
f 52/44/181 49/54/182 51/57/183 54/56/184
