# This file uses centimeters as units for non-parametric coordinates.

mtllib MandiDos.mtl
g default
v -0.285002 -0.286934 0.068675
v -0.275374 -0.270762 0.066972
v -0.266781 -0.270202 0.097430
v -0.325752 -0.252858 0.079336
v 0.021393 0.012681 0.157002
v 0.052827 -0.178503 0.086256
v -0.117979 0.001087 0.190321
v -0.112575 -0.220000 0.089845
v -0.167979 -0.068982 0.156852
v -0.192597 -0.187898 0.101367
v -0.216728 -0.213325 0.091662
v -0.264102 -0.255984 0.092444
v -0.291316 -0.299791 0.092873
v -0.254524 -0.324562 0.092209
v -0.200531 -0.323510 0.091271
v -0.186990 -0.283049 0.091077
v -0.159894 -0.241298 0.090646
v -0.145986 -0.233842 0.090412
v 0.051349 -0.178419 0.001260
v -0.195502 -0.175995 0.083893
v -0.187819 -0.202424 0.076110
v -0.272012 -0.259040 0.070257
v -0.297756 -0.302279 0.074811
v -0.277964 -0.288509 0.097606
v -0.280732 -0.234292 0.052275
v -0.284653 -0.257357 0.055049
v 0.098555 -0.198115 -0.007652
v -0.144794 -0.232422 -0.003456
v -0.205503 -0.170935 -0.002340
v -0.232750 -0.335932 -0.002029
v -0.219210 -0.295471 -0.002225
v -0.201199 -0.239419 -0.002482
v -0.178206 -0.246264 -0.002889
v 0.015724 0.013004 -0.169106
v 0.049591 -0.178319 -0.099874
v -0.124720 0.001471 -0.197585
v -0.115836 -0.219815 -0.097796
v -0.173531 -0.068666 -0.162538
v -0.196210 -0.187692 -0.106466
v -0.219990 -0.213140 -0.095979
v -0.267363 -0.255799 -0.095198
v -0.294578 -0.299605 -0.094768
v -0.257785 -0.324376 -0.095433
v -0.203793 -0.323324 -0.096369
v -0.190252 -0.282864 -0.096565
v -0.163155 -0.241112 -0.096994
v -0.149247 -0.233657 -0.097229
v -0.286743 -0.336984 -0.001092
v -0.323535 -0.312214 -0.000428
v -0.135846 -0.341445 -0.003720
v -0.122307 -0.300983 -0.003914
v 0.051068 -0.178403 -0.014879
v -0.095210 -0.259233 -0.004345
v -0.081302 -0.251777 -0.004579
v -0.047890 -0.237935 -0.005146
v -0.198504 -0.175824 -0.088878
v -0.190557 -0.202268 -0.081420
v -0.248947 -0.225747 -0.001639
v -0.296322 -0.268407 -0.000858
v -0.274498 -0.258899 -0.072756
v -0.300386 -0.302130 -0.076499
v -0.281397 -0.288314 -0.099940
v -0.287445 -0.287134 -0.070779
v -0.277762 -0.270965 -0.069379
v -0.270234 -0.270345 -0.100116
v -0.328540 -0.253039 -0.079949
v -0.297697 -0.245553 -0.000811
v -0.294831 -0.256043 -0.000872
v -0.282587 -0.234187 -0.054433
v -0.286602 -0.257246 -0.057115
v 0.051068 -0.178403 -0.014879
v 0.051349 -0.178419 0.001260
v -0.285021 -0.287272 0.068675
v -0.275393 -0.271100 0.066972
v -0.325771 -0.253196 0.079336
v -0.266801 -0.270540 0.097430
v -0.178206 -0.246264 -0.002889
v -0.201199 -0.239419 -0.002482
v -0.232750 -0.335932 -0.002029
vt 0.000000 0.000000
vt 0.000000 0.000000
vt 0.000000 0.000000
vt 0.000000 0.000000
vt 0.000000 0.000000
vt 0.000000 0.490327
vt 0.000000 0.531837
vt 0.000000 0.000000
vt 0.000000 0.000000
vt 0.000000 0.000000
vt 0.000000 0.000000
vt 0.000000 0.000000
vt 0.000000 0.000000
vt 0.000000 0.000000
vt 0.000000 0.000000
vt 0.000000 0.000000
vt 0.000000 0.000000
vt 0.000000 0.000000
vt 0.000000 0.000000
vt 0.000000 0.000000
vt 0.000000 0.000000
vt 0.000000 0.000000
vt 0.000000 0.000000
vt 0.000000 0.000000
vt 0.000000 0.000000
vt 0.000000 0.000000
vt 0.000000 0.000000
vt 0.000000 0.000000
vt 0.000000 0.000000
vt 0.000000 0.000000
vt 0.000000 0.000000
vt 0.000000 0.000000
vt 0.000000 0.000000
vt 0.000000 0.000000
vt 0.000000 0.000000
vt 0.000000 0.000000
vt 0.000000 0.000000
vt 0.000000 0.000000
vt 0.000000 0.000000
vt 0.000000 0.000000
vt 0.000000 0.000000
vt 0.000000 0.000000
vt 0.000000 0.531837
vt 0.000000 0.490327
vt 0.000000 0.000000
vt 0.000000 0.000000
vt 0.000000 0.000000
vt 0.000000 0.000000
vt 0.000000 0.000000
vt 0.000000 0.000000
vt 0.000000 0.000000
vt 0.000000 0.000000
vt 0.000000 0.000000
vt 0.000000 0.000000
vt 0.000000 0.000000
vt 0.000000 0.000000
vt 0.000000 0.000000
vt 0.000000 0.000000
vt 0.000000 0.000000
vt 0.000000 0.000000
vt 0.000000 0.000000
vt 0.000000 0.000000
vt 0.000000 0.000000
vt 0.000000 0.000000
vt 0.000000 0.000000
vt 0.000000 0.000000
vt 0.000000 0.000000
vt 0.000000 0.000000
vt 0.000000 0.000000
vt 0.000000 0.000000
vt 0.000000 0.000000
vt 0.000000 0.000000
vt 0.000000 0.000000
vt 0.000000 0.000000
vt 0.000000 0.000000
vt 0.000000 0.000000
vt 0.000000 0.000000
vt 0.000000 0.000000
vt 0.000000 0.000000
vt 0.000000 0.000000
vt 0.000000 0.000000
vn 0.310081 0.944910 -0.104854
vn 0.310081 0.944910 -0.104854
vn 0.310081 0.944910 -0.104854
vn -0.227210 0.032778 -0.973294
vn -0.227210 0.032778 -0.973294
vn -0.227211 0.032778 -0.973294
vn 0.174257 -0.364361 0.914809
vn 0.174257 -0.364361 0.914809
vn 0.174257 -0.364361 0.914809
vn 0.174257 -0.364361 0.914809
vn -0.529418 -0.797611 0.289020
vn -0.529418 -0.797612 0.289020
vn -0.529418 -0.797612 0.289020
vn -0.529418 -0.797611 0.289020
vn -0.529418 -0.797611 0.289020
vn -0.013701 -0.987528 0.156849
vn -0.013701 -0.987528 0.156849
vn -0.013701 -0.987528 0.156849
vn -0.013701 -0.987528 0.156849
vn 0.775607 -0.256775 0.576628
vn 0.775607 -0.256775 0.576628
vn 0.775607 -0.256775 0.576628
vn 0.775607 -0.256775 0.576628
vn 0.697815 -0.447119 0.559588
vn 0.697815 -0.447119 0.559588
vn 0.697815 -0.447119 0.559588
vn 0.697815 -0.447119 0.559588
vn 0.429714 -0.787757 0.441344
vn 0.429714 -0.787757 0.441344
vn 0.429714 -0.787757 0.441344
vn 0.429714 -0.787757 0.441344
vn 0.356287 -0.843536 0.401878
vn 0.356287 -0.843536 0.401878
vn 0.356287 -0.843536 0.401878
vn 0.356287 -0.843536 0.401878
vn 0.346504 -0.913708 0.212305
vn 0.346504 -0.913708 0.212305
vn 0.346504 -0.913708 0.212305
vn 0.346504 -0.913708 0.212305
vn -0.981977 0.033441 0.186019
vn -0.981977 0.033441 0.186019
vn -0.981977 0.033441 0.186019
vn -0.981977 0.033441 0.186019
vn -0.403245 0.908079 -0.113074
vn -0.403245 0.908079 -0.113074
vn -0.403245 0.908079 -0.113074
vn -0.403245 0.908079 -0.113074
vn -0.661758 0.738322 0.130219
vn -0.661758 0.738322 0.130219
vn -0.661758 0.738322 0.130219
vn -0.661758 0.738322 0.130219
vn -0.661758 0.738322 0.130219
vn -0.819273 0.514810 0.252513
vn -0.819273 0.514810 0.252513
vn -0.819273 0.514810 0.252513
vn -0.819273 0.514810 0.252513
vn -0.819273 0.514810 0.252513
vn -0.819273 0.514810 0.252513
vn 0.262821 -0.961547 0.079708
vn 0.262821 -0.961547 0.079708
vn 0.262821 -0.961547 0.079708
vn 0.262821 -0.961547 0.079708
vn -0.932876 0.230752 0.276578
vn -0.932876 0.230752 0.276578
vn -0.932876 0.230752 0.276578
vn -0.932876 0.230752 0.276578
vn -0.693330 0.697634 0.180559
vn -0.693330 0.697634 0.180559
vn -0.693330 0.697634 0.180559
vn -0.693330 0.697634 0.180559
vn 0.142350 -0.362543 -0.921032
vn 0.142350 -0.362543 -0.921032
vn 0.142350 -0.362543 -0.921032
vn 0.142350 -0.362543 -0.921032
vn -0.036947 -0.245540 -0.968682
vn -0.036947 -0.245540 -0.968682
vn -0.036947 -0.245540 -0.968682
vn -0.036947 -0.245540 -0.968682
vn -0.036947 -0.245540 -0.968682
vn -0.036947 -0.245540 -0.968682
vn -0.036947 -0.245540 -0.968682
vn -0.036947 -0.245540 -0.968682
vn -0.036947 -0.245540 -0.968682
vn -0.036947 -0.245540 -0.968682
vn -0.036947 -0.245540 -0.968682
vn -0.036947 -0.245540 -0.968682
vn -0.036947 -0.245540 -0.968682
vn -0.036947 -0.245540 -0.968682
vn -0.539177 -0.797052 -0.272023
vn -0.539177 -0.797052 -0.272023
vn -0.539177 -0.797052 -0.272023
vn -0.539177 -0.797052 -0.272023
vn -0.539177 -0.797052 -0.272023
vn -0.019178 -0.987216 -0.158232
vn -0.019178 -0.987216 -0.158232
vn -0.019178 -0.987216 -0.158232
vn -0.019178 -0.987216 -0.158232
vn 0.755092 -0.255599 -0.603742
vn 0.755092 -0.255599 -0.603742
vn 0.755092 -0.255599 -0.603742
vn 0.755092 -0.255599 -0.603742
vn 0.677927 -0.445992 -0.584385
vn 0.677927 -0.445992 -0.584385
vn 0.677927 -0.445992 -0.584385
vn 0.677927 -0.445992 -0.584385
vn 0.414084 -0.786871 -0.457568
vn 0.414084 -0.786871 -0.457568
vn 0.414084 -0.786871 -0.457568
vn 0.414084 -0.786871 -0.457568
vn 0.342079 -0.842724 -0.415690
vn 0.342079 -0.842724 -0.415690
vn 0.342079 -0.842724 -0.415690
vn 0.342079 -0.842724 -0.415690
vn 0.338886 -0.913273 -0.226028
vn 0.338886 -0.913273 -0.226028
vn 0.338886 -0.913273 -0.226028
vn 0.338886 -0.913273 -0.226028
vn -0.987851 0.033797 -0.151684
vn -0.987851 0.033797 -0.151684
vn -0.987851 0.033797 -0.151684
vn -0.987851 0.033797 -0.151684
vn -0.399047 0.907837 0.128813
vn -0.399047 0.907837 0.128813
vn -0.399047 0.907837 0.128813
vn -0.399047 0.907837 0.128813
vn -0.665860 0.738554 -0.105685
vn -0.665860 0.738554 -0.105685
vn -0.665860 0.738554 -0.105685
vn -0.665860 0.738554 -0.105685
vn -0.665860 0.738554 -0.105685
vn -0.827536 0.515279 -0.222870
vn -0.827536 0.515279 -0.222870
vn -0.827537 0.515279 -0.222870
vn -0.827536 0.515279 -0.222870
vn -0.827536 0.515279 -0.222870
vn -0.827537 0.515279 -0.222870
vn 0.259861 -0.961378 -0.090694
vn 0.259861 -0.961378 -0.090694
vn 0.259861 -0.961378 -0.090694
vn 0.259861 -0.961378 -0.090694
vn 0.017384 -0.001013 0.999848
vn 0.017384 -0.001013 0.999848
vn 0.017384 -0.001013 0.999848
vn 0.017384 -0.001013 0.999848
vn 0.017381 -0.001012 0.999848
vn 0.017381 -0.001012 0.999848
vn 0.017381 -0.001012 0.999848
vn 0.017381 -0.001012 0.999848
vn 0.017379 -0.000986 0.999848
vn 0.017379 -0.000986 0.999848
vn 0.017379 -0.000986 0.999849
vn 0.017379 -0.000986 0.999848
vn 0.017380 -0.000992 0.999848
vn 0.017380 -0.000992 0.999848
vn 0.017380 -0.000992 0.999848
vn 0.017380 -0.000992 0.999848
vn 0.017372 -0.001217 0.999848
vn 0.017372 -0.001217 0.999848
vn 0.017372 -0.001217 0.999848
vn -0.941916 0.231257 -0.243546
vn -0.941916 0.231257 -0.243545
vn -0.941916 0.231257 -0.243546
vn -0.941916 0.231257 -0.243545
vn -0.699165 0.697962 -0.154978
vn -0.699165 0.697962 -0.154979
vn -0.699165 0.697962 -0.154979
vn -0.699165 0.697962 -0.154979
vn -0.618726 -0.776740 0.117700
vn -0.618726 -0.776740 0.117700
vn -0.618726 -0.776740 0.117700
vn -0.245611 0.161975 0.955740
vn -0.245611 0.161975 0.955740
vn -0.245611 0.161975 0.955740
vn -0.622472 -0.776523 -0.097674
vn -0.622472 -0.776523 -0.097674
vn -0.622472 -0.776523 -0.097674
vn -0.278661 0.163893 -0.946302
vn -0.278661 0.163893 -0.946302
vn -0.278661 0.163893 -0.946302
vn 0.313571 0.944712 0.095878
vn 0.313571 0.944712 0.095878
vn 0.313571 0.944712 0.095878
vn -0.193253 0.030809 0.980665
vn -0.193253 0.030809 0.980665
vn -0.193253 0.030809 0.980665
vn -0.970226 0.049697 0.237048
vn -0.970226 0.049697 0.237048
vn -0.970226 0.049697 0.237048
vn -0.970226 0.049697 0.237048
vn -0.209916 -0.114222 0.971025
vn -0.209916 -0.114222 0.971025
vn -0.209916 -0.114222 0.971025
vn -0.209916 -0.114222 0.971025
vn -0.606419 0.790888 0.082177
vn -0.606419 0.790888 0.082177
vn -0.606418 0.790888 0.082177
vn -0.606418 0.790888 0.082177
vn -0.977876 0.050116 -0.203095
vn -0.977876 0.050116 -0.203095
vn -0.977876 0.050116 -0.203095
vn -0.977876 0.050116 -0.203095
vn -0.243551 -0.112296 -0.963365
vn -0.243551 -0.112296 -0.963365
vn -0.243551 -0.112296 -0.963365
vn -0.243551 -0.112296 -0.963365
vn -0.608881 0.791028 -0.059491
vn -0.608881 0.791028 -0.059491
vn -0.608881 0.791028 -0.059491
vn -0.608881 0.791028 -0.059491
vn -0.003267 -0.247457 0.968893
vn -0.003267 -0.247457 0.968893
vn -0.003267 -0.247457 0.968893
vn -0.003267 -0.247457 0.968893
vn -0.003267 -0.247457 0.968893
vn -0.003267 -0.247457 0.968893
vn -0.003267 -0.247457 0.968893
vn -0.003267 -0.247457 0.968893
vn -0.003267 -0.247457 0.968893
vn -0.003267 -0.247457 0.968893
vn -0.003267 -0.247457 0.968893
vn -0.003267 -0.247457 0.968893
vn -0.003267 -0.247457 0.968893
vn -0.003267 -0.247457 0.968893
s off
g Mandibula:polySurface14
usemtl Mandibula:lambert2SG
f 3/1/1 2/2/2 4/3/3
f 2/2/4 1/4/5 4/3/6
f 6/5/7 5/6/8 7/7/9 8/8/10
f 49/9/11 48/10/12 14/11/13 13/12/14 23/13/15
f 48/10/16 50/14/17 15/15/18 14/11/19
f 50/14/20 51/16/21 16/17/22 15/15/23
f 51/16/24 53/18/25 17/19/26 16/17/27
f 53/18/28 54/20/29 18/21/30 17/19/31
f 54/20/32 55/22/33 8/8/34 18/21/35
f 55/22/36 19/23/37 6/5/38 8/8/39
f 20/24/40 21/25/41 10/26/42 9/27/43
f 21/25/44 58/28/45 11/29/46 10/26/47
f 58/28/48 59/30/49 22/31/50 12/32/51 11/29/52
f 59/30/53 49/9/54 23/13/55 73/33/56 74/34/57 22/31/58
f 28/35/59 27/36/60 72/37/61 55/22/62
f 22/31/63 74/34/64 76/38/65 12/32/66
f 24/39/67 73/40/68 23/13/69 13/12/70
f 35/41/71 37/42/72 36/43/73 34/44/74
f 37/42/75 47/45/76 46/46/77 45/47/78 44/48/79 43/49/80 42/50/81 62/51/82 65/52/83 41/53/84 40/54/85 39/55/86 38/56/87 36/43/88
f 49/9/89 61/57/90 42/50/91 43/49/92 48/10/93
f 48/10/94 43/49/95 44/48/96 50/14/97
f 50/14/98 44/48/99 45/47/100 51/16/101
f 51/16/102 45/47/103 46/46/104 53/18/105
f 53/18/106 46/46/107 47/45/108 54/20/109
f 54/20/110 47/45/111 37/42/112 55/22/113
f 55/22/114 37/42/115 35/41/116 52/58/117
f 56/59/118 38/56/119 39/55/120 57/60/121
f 57/60/122 39/55/123 40/54/124 58/28/125
f 58/28/126 40/54/127 41/53/128 60/61/129 59/30/130
f 59/30/131 60/61/132 64/62/133 63/63/134 61/57/135 49/9/136
f 28/35/137 55/22/138 71/64/139 27/36/140
f 77/65/141 54/20/142 55/22/143 28/35/144
f 78/66/145 53/18/146 54/20/147 33/67/148
f 31/68/149 51/16/150 53/18/151 32/69/152
f 79/70/153 50/14/154 51/16/155 31/68/156
f 48/10/157 50/14/158 30/71/159
f 60/61/160 41/53/161 65/52/162 64/62/163
f 62/51/164 42/50/165 61/57/166 63/63/167
f 73/33/168 24/39/169 75/72/170
f 24/39/171 76/38/172 75/72/173
f 63/63/174 66/73/175 62/51/176
f 62/51/177 66/73/178 65/52/179
f 65/52/180 66/73/181 64/62/182
f 64/62/183 66/73/184 63/63/185
f 67/74/186 68/75/187 26/76/188 25/77/189
f 21/25/190 20/24/191 25/77/192 26/76/193
f 20/24/194 29/78/195 67/74/196 25/77/197
f 67/74/198 69/79/199 70/80/200 68/75/201
f 57/60/202 70/80/203 69/79/204 56/59/205
f 56/59/206 69/79/207 67/74/208 29/78/209
f 8/8/210 7/7/211 9/27/212 10/26/213 11/29/214 12/32/215 76/81/216 24/39/217 13/12/218 14/11/219 15/15/220 16/17/221 17/19/222 18/21/223
